<svg width="390" height="391" viewBox="0 0 390 391" fill="true" xmlns="http://www.w3.org/2000/svg">
<path d="M195 232V234.334H195L195 232Z" stroke="url(#paint0_linear_79_7518)" stroke-width="40"/>
<mask id="path-2-inside-1_79_7518" fill="white">
<path d="M170 276.34C170 271.805 173.676 68.129 178.211 268.129C181.698 268.129 187.885 268.129 187.885 268.129H197.584C202.105 268.129 205.769 271.794 205.769 276.314C205.769 280.835 202.107 284.5 197.586 284.5C191.615 284.5 184.283 284.5 182.598 284.5C170 284.5 170 312 170 312V276.34Z"/>
</mask>
<path d="M187.885 268.129L187.885 298.129H187.885V268.129ZM200 312V276.34H140V312H200ZM197.586 254.5C197.575 254.5 197.563 254.5 197.551 254.5C197.54 254.5 197.528 254.5 197.516 254.5C197.505 254.5 197.493 254.5 197.481 254.5C197.47 254.5 197.458 254.5 197.446 254.5C197.435 254.5 197.423 254.5 197.411 254.5C197.399 254.5 197.388 254.5 197.376 254.5C197.364 254.5 197.353 254.5 197.341 254.5C197.329 254.5 197.317 254.5 197.306 254.5C197.294 254.5 197.282 254.5 197.27 254.5C197.259 254.5 197.247 254.5 197.235 254.5C197.223 254.5 197.212 254.5 197.2 254.5C197.188 254.5 197.176 254.5 197.164 254.5C197.153 254.5 197.141 254.5 197.129 254.5C197.117 254.5 197.106 254.5 197.094 254.5C197.082 254.5 197.07 254.5 197.058 254.5C197.047 254.5 197.035 254.5 197.023 254.5C197.011 254.5 196.999 254.5 196.987 254.5C196.976 254.5 196.964 254.5 196.952 254.5C196.94 254.5 196.928 254.5 196.916 254.5C196.905 254.5 196.893 254.5 196.881 254.5C196.869 254.5 196.857 254.5 196.845 254.5C196.833 254.5 196.822 254.5 196.81 254.5C196.798 254.5 196.786 254.5 196.774 254.5C196.762 254.5 196.75 254.5 196.739 254.5C196.727 254.5 196.715 254.5 196.703 254.5C196.691 254.5 196.679 254.5 196.667 254.5C196.655 254.5 196.643 254.5 196.631 254.5C196.62 254.5 196.608 254.5 196.596 254.5C196.584 254.5 196.572 254.5 196.56 254.5C196.548 254.5 196.536 254.5 196.524 254.5C196.512 254.5 196.5 254.5 196.488 254.5C196.477 254.5 196.465 254.5 196.453 254.5C196.441 254.5 196.429 254.5 196.417 254.5C196.405 254.5 196.393 254.5 196.381 254.5C196.369 254.5 196.357 254.5 196.345 254.5C196.333 254.5 196.321 254.5 196.309 254.5C196.297 254.5 196.285 254.5 196.273 254.5C196.261 254.5 196.249 254.5 196.237 254.5C196.225 254.5 196.213 254.5 196.201 254.5C196.189 254.5 196.177 254.5 196.165 254.5C196.153 254.5 196.141 254.5 196.129 254.5C196.117 254.5 196.105 254.5 196.093 254.5C196.081 254.5 196.069 254.5 196.057 254.5C196.045 254.5 196.033 254.5 196.021 254.5C196.009 254.5 195.997 254.5 195.985 254.5C195.973 254.5 195.961 254.5 195.949 254.5C195.937 254.5 195.925 254.5 195.913 254.5C195.901 254.5 195.889 254.5 195.877 254.5C195.865 254.5 195.853 254.5 195.841 254.5C195.829 254.5 195.817 254.5 195.805 254.5C195.793 254.5 195.781 254.5 195.769 254.5C195.756 254.5 195.744 254.5 195.732 254.5C195.72 254.5 195.708 254.5 195.696 254.5C195.684 254.5 195.672 254.5 195.66 254.5C195.648 254.5 195.636 254.5 195.624 254.5C195.612 254.5 195.6 254.5 195.588 254.5C195.575 254.5 195.563 254.5 195.551 254.5C195.539 254.5 195.527 254.5 195.515 254.5C195.503 254.5 195.491 254.5 195.479 254.5C195.467 254.5 195.455 254.5 195.442 254.5C195.43 254.5 195.418 254.5 195.406 254.5C195.394 254.5 195.382 254.5 195.37 254.5C195.358 254.5 195.346 254.5 195.334 254.5C195.321 254.5 195.309 254.5 195.297 254.5C195.285 254.5 195.273 254.5 195.261 254.5C195.249 254.5 195.237 254.5 195.224 254.5C195.212 254.5 195.2 254.5 195.188 254.5C195.176 254.5 195.164 254.5 195.152 254.5C195.14 254.5 195.127 254.5 195.115 254.5C195.103 254.5 195.091 254.5 195.079 254.5C195.067 254.5 195.055 254.5 195.043 254.5C195.03 254.5 195.018 254.5 195.006 254.5C194.994 254.5 194.982 254.5 194.97 254.5C194.958 254.5 194.945 254.5 194.933 254.5C194.921 254.5 194.909 254.5 194.897 254.5C194.885 254.5 194.873 254.5 194.86 254.5C194.848 254.5 194.836 254.5 194.824 254.5C194.812 254.5 194.8 254.5 194.787 254.5C194.775 254.5 194.763 254.5 194.751 254.5C194.739 254.5 194.727 254.5 194.715 254.5C194.702 254.5 194.69 254.5 194.678 254.5C194.666 254.5 194.654 254.5 194.642 254.5C194.629 254.5 194.617 254.5 194.605 254.5C194.593 254.5 194.581 254.5 194.569 254.5C194.556 254.5 194.544 254.5 194.532 254.5C194.52 254.5 194.508 254.5 194.496 254.5C194.483 254.5 194.471 254.5 194.459 254.5C194.447 254.5 194.435 254.5 194.423 254.5C194.41 254.5 194.398 254.5 194.386 254.5C194.374 254.5 194.362 254.5 194.35 254.5C194.337 254.5 194.325 254.5 194.313 254.5C194.301 254.5 194.289 254.5 194.276 254.5C194.264 254.5 194.252 254.5 194.24 254.5C194.228 254.5 194.216 254.5 194.203 254.5C194.191 254.5 194.179 254.5 194.167 254.5C194.155 254.5 194.143 254.5 194.13 254.5C194.118 254.5 194.106 254.5 194.094 254.5C194.082 254.5 194.069 254.5 194.057 254.5C194.045 254.5 194.033 254.5 194.021 254.5C194.009 254.5 193.996 254.5 193.984 254.5C193.972 254.5 193.96 254.5 193.948 254.5C193.935 254.5 193.923 254.5 193.911 254.5C193.899 254.5 193.887 254.5 193.875 254.5C193.862 254.5 193.85 254.5 193.838 254.5C193.826 254.5 193.814 254.5 193.802 254.5C193.789 254.5 193.777 254.5 193.765 254.5C193.753 254.5 193.741 254.5 193.728 254.5C193.716 254.5 193.704 254.5 193.692 254.5C193.68 254.5 193.668 254.5 193.655 254.5C193.643 254.5 193.631 254.5 193.619 254.5C193.607 254.5 193.595 254.5 193.582 254.5C193.57 254.5 193.558 254.5 193.546 254.5C193.534 254.5 193.522 254.5 193.509 254.5C193.497 254.5 193.485 254.5 193.473 254.5C193.461 254.5 193.449 254.5 193.436 254.5C193.424 254.5 193.412 254.5 193.4 254.5C193.388 254.5 193.376 254.5 193.363 254.5C193.351 254.5 193.339 254.5 193.327 254.5C193.315 254.5 193.303 254.5 193.29 254.5C193.278 254.5 193.266 254.5 193.254 254.5C193.242 254.5 193.23 254.5 193.217 254.5C193.205 254.5 193.193 254.5 193.181 254.5C193.169 254.5 193.157 254.5 193.145 254.5C193.132 254.5 193.12 254.5 193.108 254.5C193.096 254.5 193.084 254.5 193.072 254.5C193.06 254.5 193.047 254.5 193.035 254.5C193.023 254.5 193.011 254.5 192.999 254.5C192.987 254.5 192.975 254.5 192.962 254.5C192.95 254.5 192.938 254.5 192.926 254.5C192.914 254.5 192.902 254.5 192.89 254.5C192.877 254.5 192.865 254.5 192.853 254.5C192.841 254.5 192.829 254.5 192.817 254.5C192.805 254.5 192.793 254.5 192.781 254.5C192.768 254.5 192.756 254.5 192.744 254.5C192.732 254.5 192.72 254.5 192.708 254.5C192.696 254.5 192.684 254.5 192.671 254.5C192.659 254.5 192.647 254.5 192.635 254.5C192.623 254.5 192.611 254.5 192.599 254.5C192.587 254.5 192.575 254.5 192.563 254.5C192.55 254.5 192.538 254.5 192.526 254.5C192.514 254.5 192.502 254.5 192.49 254.5C192.478 254.5 192.466 254.5 192.454 254.5C192.442 254.5 192.43 254.5 192.417 254.5C192.405 254.5 192.393 254.5 192.381 254.5C192.369 254.5 192.357 254.5 192.345 254.5C192.333 254.5 192.321 254.5 192.309 254.5C192.297 254.5 192.285 254.5 192.273 254.5C192.261 254.5 192.249 254.5 192.236 254.5C192.224 254.5 192.212 254.5 192.2 254.5C192.188 254.5 192.176 254.5 192.164 254.5C192.152 254.5 192.14 254.5 192.128 254.5C192.116 254.5 192.104 254.5 192.092 254.5C192.08 254.5 192.068 254.5 192.056 254.5C192.044 254.5 192.032 254.5 192.02 254.5C192.008 254.5 191.996 254.5 191.984 254.5C191.972 254.5 191.96 254.5 191.948 254.5C191.936 254.5 191.924 254.5 191.912 254.5C191.9 254.5 191.888 254.5 191.876 254.5C191.864 254.5 191.852 254.5 191.84 254.5C191.828 254.5 191.816 254.5 191.804 254.5C191.792 254.5 191.78 254.5 191.768 254.5C191.756 254.5 191.744 254.5 191.732 254.5C191.72 254.5 191.708 254.5 191.696 254.5C191.684 254.5 191.672 254.5 191.66 254.5C191.648 254.5 191.636 254.5 191.624 254.5C191.612 254.5 191.6 254.5 191.588 254.5C191.576 254.5 191.564 254.5 191.552 254.5C191.54 254.5 191.529 254.5 191.517 254.5C191.505 254.5 191.493 254.5 191.481 254.5C191.469 254.5 191.457 254.5 191.445 254.5C191.433 254.5 191.421 254.5 191.409 254.5C191.397 254.5 191.385 254.5 191.374 254.5C191.362 254.5 191.35 254.5 191.338 254.5C191.326 254.5 191.314 254.5 191.302 254.5C191.29 254.5 191.278 254.5 191.267 254.5C191.255 254.5 191.243 254.5 191.231 254.5C191.219 254.5 191.207 254.5 191.195 254.5C191.183 254.5 191.172 254.5 191.16 254.5C191.148 254.5 191.136 254.5 191.124 254.5C191.112 254.5 191.1 254.5 191.089 254.5C191.077 254.5 191.065 254.5 191.053 254.5C191.041 254.5 191.029 254.5 191.018 254.5C191.006 254.5 190.994 254.5 190.982 254.5C190.97 254.5 190.959 254.5 190.947 254.5C190.935 254.5 190.923 254.5 190.911 254.5C190.9 254.5 190.888 254.5 190.876 254.5C190.864 254.5 190.852 254.5 190.841 254.5C190.829 254.5 190.817 254.5 190.805 254.5C190.794 254.5 190.782 254.5 190.77 254.5C190.758 254.5 190.747 254.5 190.735 254.5C190.723 254.5 190.711 254.5 190.7 254.5C190.688 254.5 190.676 254.5 190.664 254.5C190.653 254.5 190.641 254.5 190.629 254.5C190.617 254.5 190.606 254.5 190.594 254.5C190.582 254.5 190.571 254.5 190.559 254.5C190.547 254.5 190.535 254.5 190.524 254.5C190.512 254.5 190.5 254.5 190.489 254.5C190.477 254.5 190.465 254.5 190.454 254.5C190.442 254.5 190.43 254.5 190.419 254.5C190.407 254.5 190.395 254.5 190.384 254.5C190.372 254.5 190.36 254.5 190.349 254.5C190.337 254.5 190.326 254.5 190.314 254.5C190.302 254.5 190.291 254.5 190.279 254.5C190.267 254.5 190.256 254.5 190.244 254.5C190.233 254.5 190.221 254.5 190.209 254.5C190.198 254.5 190.186 254.5 190.175 254.5C190.163 254.5 190.151 254.5 190.14 254.5C190.128 254.5 190.117 254.5 190.105 254.5C190.094 254.5 190.082 254.5 190.07 254.5C190.059 254.5 190.047 254.5 190.036 254.5C190.024 254.5 190.013 254.5 190.001 254.5C189.99 254.5 189.978 254.5 189.967 254.5C189.955 254.5 189.944 254.5 189.932 254.5C189.921 254.5 189.909 254.5 189.898 254.5C189.886 254.5 189.875 254.5 189.863 254.5C189.852 254.5 189.84 254.5 189.829 254.5C189.817 254.5 189.806 254.5 189.794 254.5C189.783 254.5 189.771 254.5 189.76 254.5C189.749 254.5 189.737 254.5 189.726 254.5C189.714 254.5 189.703 254.5 189.691 254.5C189.68 254.5 189.669 254.5 189.657 254.5C189.646 254.5 189.634 254.5 189.623 254.5C189.612 254.5 189.6 254.5 189.589 254.5C189.577 254.5 189.566 254.5 189.555 254.5C189.543 254.5 189.532 254.5 189.521 254.5C189.509 254.5 189.498 254.5 189.487 254.5C189.475 254.5 189.464 254.5 189.453 254.5C189.441 254.5 189.43 254.5 189.419 254.5C189.407 254.5 189.396 254.5 189.385 254.5C189.373 254.5 189.362 254.5 189.351 254.5C189.339 254.5 189.328 254.5 189.317 254.5C189.306 254.5 189.294 254.5 189.283 254.5C189.272 254.5 189.261 254.5 189.249 254.5C189.238 254.5 189.227 254.5 189.216 254.5C189.204 254.5 189.193 254.5 189.182 254.5C189.171 254.5 189.16 254.5 189.148 254.5C189.137 254.5 189.126 254.5 189.115 254.5C189.104 254.5 189.092 254.5 189.081 254.5C189.07 254.5 189.059 254.5 189.048 254.5C189.037 254.5 189.025 254.5 189.014 254.5C189.003 254.5 188.992 254.5 188.981 254.5C188.97 254.5 188.959 254.5 188.947 254.5C188.936 254.5 188.925 254.5 188.914 254.5C188.903 254.5 188.892 254.5 188.881 254.5C188.87 254.5 188.859 254.5 188.848 254.5C188.837 254.5 188.825 254.5 188.814 254.5C188.803 254.5 188.792 254.5 188.781 254.5C188.77 254.5 188.759 254.5 188.748 254.5C188.737 254.5 188.726 254.5 188.715 254.5C188.704 254.5 188.693 254.5 188.682 254.5C188.671 254.5 188.66 254.5 188.649 254.5C188.638 254.5 188.627 254.5 188.616 254.5C188.605 254.5 188.594 254.5 188.583 254.5C188.572 254.5 188.561 254.5 188.551 254.5C188.54 254.5 188.529 254.5 188.518 254.5C188.507 254.5 188.496 254.5 188.485 254.5C188.474 254.5 188.463 254.5 188.452 254.5C188.441 254.5 188.431 254.5 188.42 254.5C188.409 254.5 188.398 254.5 188.387 254.5C188.376 254.5 188.365 254.5 188.355 254.5C188.344 254.5 188.333 254.5 188.322 254.5C188.311 254.5 188.301 254.5 188.29 254.5C188.279 254.5 188.268 254.5 188.257 254.5C188.247 254.5 188.236 254.5 188.225 254.5C188.214 254.5 188.204 254.5 188.193 254.5C188.182 254.5 188.171 254.5 188.161 254.5C188.15 254.5 188.139 254.5 188.128 254.5C188.118 254.5 188.107 254.5 188.096 254.5C188.086 254.5 188.075 254.5 188.064 254.5C188.054 254.5 188.043 254.5 188.032 254.5C188.022 254.5 188.011 254.5 188 254.5C187.99 254.5 187.979 254.5 187.968 254.5C187.958 254.5 187.947 254.5 187.937 254.5C187.926 254.5 187.915 254.5 187.905 254.5C187.894 254.5 187.884 254.5 187.873 254.5C187.862 254.5 187.852 254.5 187.841 254.5C187.831 254.5 187.82 254.5 187.81 254.5C187.799 254.5 187.789 254.5 187.778 254.5C187.768 254.5 187.757 254.5 187.747 254.5C187.736 254.5 187.726 254.5 187.715 254.5C187.705 254.5 187.694 254.5 187.684 254.5C187.673 254.5 187.663 254.5 187.652 254.5C187.642 254.5 187.632 254.5 187.621 254.5C187.611 254.5 187.6 254.5 187.59 254.5C187.58 254.5 187.569 254.5 187.559 254.5C187.548 254.5 187.538 254.5 187.528 254.5C187.517 254.5 187.507 254.5 187.497 254.5C187.486 254.5 187.476 254.5 187.466 254.5C187.455 254.5 187.445 254.5 187.435 254.5C187.424 254.5 187.414 254.5 187.404 254.5C187.393 254.5 187.383 254.5 187.373 254.5C187.363 254.5 187.352 254.5 187.342 254.5C187.332 254.5 187.322 254.5 187.311 254.5C187.301 254.5 187.291 254.5 187.281 254.5C187.271 254.5 187.26 254.5 187.25 254.5C187.24 254.5 187.23 254.5 187.22 254.5C187.21 254.5 187.199 254.5 187.189 254.5C187.179 254.5 187.169 254.5 187.159 254.5C187.149 254.5 187.139 254.5 187.129 254.5C187.118 254.5 187.108 254.5 187.098 254.5C187.088 254.5 187.078 254.5 187.068 254.5C187.058 254.5 187.048 254.5 187.038 254.5C187.028 254.5 187.018 254.5 187.008 254.5C186.998 254.5 186.988 254.5 186.978 254.5C186.968 254.5 186.958 254.5 186.948 254.5C186.938 254.5 186.928 254.5 186.918 254.5C186.908 254.5 186.898 254.5 186.888 254.5C186.878 254.5 186.868 254.5 186.858 254.5C186.849 254.5 186.839 254.5 186.829 254.5C186.819 254.5 186.809 254.5 186.799 254.5C186.789 254.5 186.779 254.5 186.77 254.5C186.76 254.5 186.75 254.5 186.74 254.5C186.73 254.5 186.72 254.5 186.711 254.5C186.701 254.5 186.691 254.5 186.681 254.5C186.672 254.5 186.662 254.5 186.652 254.5C186.642 254.5 186.633 254.5 186.623 254.5C186.613 254.5 186.603 254.5 186.594 254.5C186.584 254.5 186.574 254.5 186.565 254.5C186.555 254.5 186.545 254.5 186.536 254.5C186.526 254.5 186.516 254.5 186.507 254.5C186.497 254.5 186.487 254.5 186.478 254.5C186.468 254.5 186.459 254.5 186.449 254.5C186.439 254.5 186.43 254.5 186.42 254.5C186.411 254.5 186.401 254.5 186.392 254.5C186.382 254.5 186.372 254.5 186.363 254.5C186.353 254.5 186.344 254.5 186.334 254.5C186.325 254.5 186.315 254.5 186.306 254.5C186.296 254.5 186.287 254.5 186.278 254.5C186.268 254.5 186.259 254.5 186.249 254.5C186.24 254.5 186.23 254.5 186.221 254.5C186.212 254.5 186.202 254.5 186.193 254.5C186.183 254.5 186.174 254.5 186.165 254.5C186.155 254.5 186.146 254.5 186.137 254.5C186.127 254.5 186.118 254.5 186.109 254.5C186.099 254.5 186.09 254.5 186.081 254.5C186.072 254.5 186.062 254.5 186.053 254.5C186.044 254.5 186.035 254.5 186.025 254.5C186.016 254.5 186.007 254.5 185.998 254.5C185.988 254.5 185.979 254.5 185.97 254.5C185.961 254.5 185.952 254.5 185.943 254.5C185.933 254.5 185.924 254.5 185.915 254.5C185.906 254.5 185.897 254.5 185.888 254.5C185.879 254.5 185.87 254.5 185.86 254.5C185.851 254.5 185.842 254.5 185.833 254.5C185.824 254.5 185.815 254.5 185.806 254.5C185.797 254.5 185.788 254.5 185.779 254.5C185.77 254.5 185.761 254.5 185.752 254.5C185.743 254.5 185.734 254.5 185.725 254.5C185.716 254.5 185.707 254.5 185.698 254.5C185.689 254.5 185.681 254.5 185.672 254.5C185.663 254.5 185.654 254.5 185.645 254.5C185.636 254.5 185.627 254.5 185.618 254.5C185.61 254.5 185.601 254.5 185.592 254.5C185.583 254.5 185.574 254.5 185.565 254.5C185.557 254.5 185.548 254.5 185.539 254.5C185.53 254.5 185.522 254.5 185.513 254.5C185.504 254.5 185.495 254.5 185.487 254.5C185.478 254.5 185.469 254.5 185.461 254.5C185.452 254.5 185.443 254.5 185.435 254.5C185.426 254.5 185.417 254.5 185.409 254.5C185.4 254.5 185.391 254.5 185.383 254.5C185.374 254.5 185.366 254.5 185.357 254.5C185.348 254.5 185.34 254.5 185.331 254.5C185.323 254.5 185.314 254.5 185.306 254.5C185.297 254.5 185.289 254.5 185.28 254.5C185.272 254.5 185.263 254.5 185.255 254.5C185.246 254.5 185.238 254.5 185.229 254.5C185.221 254.5 185.212 254.5 185.204 254.5C185.196 254.5 185.187 254.5 185.179 254.5C185.17 254.5 185.162 254.5 185.154 254.5C185.145 254.5 185.137 254.5 185.129 254.5C185.12 254.5 185.112 254.5 185.104 254.5C185.095 254.5 185.087 254.5 185.079 254.5C185.071 254.5 185.062 254.5 185.054 254.5C185.046 254.5 185.038 254.5 185.029 254.5C185.021 254.5 185.013 254.5 185.005 254.5C184.997 254.5 184.989 254.5 184.98 254.5C184.972 254.5 184.964 254.5 184.956 254.5C184.948 254.5 184.94 254.5 184.932 254.5C184.923 254.5 184.915 254.5 184.907 254.5C184.899 254.5 184.891 254.5 184.883 254.5C184.875 254.5 184.867 254.5 184.859 254.5C184.851 254.5 184.843 254.5 184.835 254.5C184.827 254.5 184.819 254.5 184.811 254.5C184.803 254.5 184.795 254.5 184.787 254.5C184.78 254.5 184.772 254.5 184.764 254.5C184.756 254.5 184.748 254.5 184.74 254.5C184.732 254.5 184.724 254.5 184.717 254.5C184.709 254.5 184.701 254.5 184.693 254.5C184.685 254.5 184.678 254.5 184.67 254.5C184.662 254.5 184.654 254.5 184.646 254.5C184.639 254.5 184.631 254.5 184.623 254.5C184.616 254.5 184.608 254.5 184.6 254.5C184.593 254.5 184.585 254.5 184.577 254.5C184.57 254.5 184.562 254.5 184.554 254.5C184.547 254.5 184.539 254.5 184.532 254.5C184.524 254.5 184.516 254.5 184.509 254.5C184.501 254.5 184.494 254.5 184.486 254.5C184.479 254.5 184.471 254.5 184.464 254.5C184.456 254.5 184.449 254.5 184.441 254.5C184.434 254.5 184.426 254.5 184.419 254.5C184.411 254.5 184.404 254.5 184.397 254.5C184.389 254.5 184.382 254.5 184.374 254.5C184.367 254.5 184.36 254.5 184.352 254.5C184.345 254.5 184.338 254.5 184.33 254.5C184.323 254.5 184.316 254.5 184.309 254.5C184.301 254.5 184.294 254.5 184.287 254.5C184.28 254.5 184.272 254.5 184.265 254.5C184.258 254.5 184.251 254.5 184.244 254.5C184.236 254.5 184.229 254.5 184.222 254.5C184.215 254.5 184.208 254.5 184.201 254.5C184.194 254.5 184.187 254.5 184.179 254.5C184.172 254.5 184.165 254.5 184.158 254.5C184.151 254.5 184.144 254.5 184.137 254.5C184.13 254.5 184.123 254.5 184.116 254.5C184.109 254.5 184.102 254.5 184.095 254.5C184.088 254.5 184.081 254.5 184.075 254.5C184.068 254.5 184.061 254.5 184.054 254.5C184.047 254.5 184.04 254.5 184.033 254.5C184.026 254.5 184.02 254.5 184.013 254.5C184.006 254.5 183.999 254.5 183.992 254.5C183.986 254.5 183.979 254.5 183.972 254.5C183.965 254.5 183.959 254.5 183.952 254.5C183.945 254.5 183.938 254.5 183.932 254.5C183.925 254.5 183.918 254.5 183.912 254.5C183.905 254.5 183.899 254.5 183.892 254.5C183.885 254.5 183.879 254.5 183.872 254.5C183.866 254.5 183.859 254.5 183.852 254.5C183.846 254.5 183.839 254.5 183.833 254.5C183.826 254.5 183.82 254.5 183.813 254.5C183.807 254.5 183.801 254.5 183.794 254.5C183.788 254.5 183.781 254.5 183.775 254.5C183.768 254.5 183.762 254.5 183.756 254.5C183.749 254.5 183.743 254.5 183.737 254.5C183.73 254.5 183.724 254.5 183.718 254.5C183.711 254.5 183.705 254.5 183.699 254.5C183.693 254.5 183.686 254.5 183.68 254.5C183.674 254.5 183.668 254.5 183.661 254.5C183.655 254.5 183.649 254.5 183.643 254.5C183.637 254.5 183.631 254.5 183.624 254.5C183.618 254.5 183.612 254.5 183.606 254.5C183.6 254.5 183.594 254.5 183.588 254.5C183.582 254.5 183.576 254.5 183.57 254.5C183.564 254.5 183.558 254.5 183.552 254.5C183.546 254.5 183.54 254.5 183.534 254.5C183.528 254.5 183.522 254.5 183.516 254.5C183.51 254.5 183.504 254.5 183.499 254.5C183.493 254.5 183.487 254.5 183.481 254.5C183.475 254.5 183.469 254.5 183.464 254.5C183.458 254.5 183.452 254.5 183.446 254.5C183.44 254.5 183.435 254.5 183.429 254.5C183.423 254.5 183.418 254.5 183.412 254.5C183.406 254.5 183.4 254.5 183.395 254.5C183.389 254.5 183.384 254.5 183.378 254.5C183.372 254.5 183.367 254.5 183.361 254.5C183.356 254.5 183.35 254.5 183.344 254.5C183.339 254.5 183.333 254.5 183.328 254.5C183.322 254.5 183.317 254.5 183.311 254.5C183.306 254.5 183.301 254.5 183.295 254.5C183.29 254.5 183.284 254.5 183.279 254.5C183.273 254.5 183.268 254.5 183.263 254.5C183.257 254.5 183.252 254.5 183.247 254.5C183.241 254.5 183.236 254.5 183.231 254.5C183.226 254.5 183.22 254.5 183.215 254.5C183.21 254.5 183.205 254.5 183.199 254.5C183.194 254.5 183.189 254.5 183.184 254.5C183.179 254.5 183.174 254.5 183.168 254.5C183.163 254.5 183.158 254.5 183.153 254.5C183.148 254.5 183.143 254.5 183.138 254.5C183.133 254.5 183.128 254.5 183.123 254.5C183.118 254.5 183.113 254.5 183.108 254.5C183.103 254.5 183.098 254.5 183.093 254.5C183.088 254.5 183.083 254.5 183.078 254.5C183.073 254.5 183.069 254.5 183.064 254.5C183.059 254.5 183.054 254.5 183.049 254.5C183.044 254.5 183.04 254.5 183.035 254.5C183.03 254.5 183.025 254.5 183.021 254.5C183.016 254.5 183.011 254.5 183.006 254.5C183.002 254.5 182.997 254.5 182.992 254.5C182.988 254.5 182.983 254.5 182.978 254.5C182.974 254.5 182.969 254.5 182.965 254.5C182.96 254.5 182.956 254.5 182.951 254.5C182.946 254.5 182.942 254.5 182.937 254.5C182.933 254.5 182.928 254.5 182.924 254.5C182.92 254.5 182.915 254.5 182.911 254.5C182.906 254.5 182.902 254.5 182.897 254.5C182.893 254.5 182.889 254.5 182.884 254.5C182.88 254.5 182.876 254.5 182.871 254.5C182.867 254.5 182.863 254.5 182.859 254.5C182.854 254.5 182.85 254.5 182.846 254.5C182.842 254.5 182.838 254.5 182.833 254.5C182.829 254.5 182.825 254.5 182.821 254.5C182.817 254.5 182.813 254.5 182.809 254.5C182.804 254.5 182.8 254.5 182.796 254.5C182.792 254.5 182.788 254.5 182.784 254.5C182.78 254.5 182.776 254.5 182.772 254.5C182.768 254.5 182.764 254.5 182.76 254.5C182.757 254.5 182.753 254.5 182.749 254.5C182.745 254.5 182.741 254.5 182.737 254.5C182.733 254.5 182.729 254.5 182.726 254.5C182.722 254.5 182.718 254.5 182.714 254.5C182.711 254.5 182.707 254.5 182.703 254.5C182.699 254.5 182.696 254.5 182.692 254.5C182.688 254.5 182.685 254.5 182.681 254.5C182.677 254.5 182.674 254.5 182.67 254.5C182.667 254.5 182.663 254.5 182.66 254.5C182.656 254.5 182.652 254.5 182.649 254.5C182.645 254.5 182.642 254.5 182.638 254.5C182.635 254.5 182.632 254.5 182.628 254.5C182.625 254.5 182.621 254.5 182.618 254.5C182.615 254.5 182.611 254.5 182.608 254.5C182.605 254.5 182.601 254.5 182.598 254.5V314.5C182.601 314.5 182.605 314.5 182.608 314.5C182.611 314.5 182.615 314.5 182.618 314.5C182.621 314.5 182.625 314.5 182.628 314.5C182.632 314.5 182.635 314.5 182.638 314.5C182.642 314.5 182.645 314.5 182.649 314.5C182.652 314.5 182.656 314.5 182.66 314.5C182.663 314.5 182.667 314.5 182.67 314.5C182.674 314.5 182.677 314.5 182.681 314.5C182.685 314.5 182.688 314.5 182.692 314.5C182.696 314.5 182.699 314.5 182.703 314.5C182.707 314.5 182.711 314.5 182.714 314.5C182.718 314.5 182.722 314.5 182.726 314.5C182.729 314.5 182.733 314.5 182.737 314.5C182.741 314.5 182.745 314.5 182.749 314.5C182.753 314.5 182.757 314.5 182.76 314.5C182.764 314.5 182.768 314.5 182.772 314.5C182.776 314.5 182.78 314.5 182.784 314.5C182.788 314.5 182.792 314.5 182.796 314.5C182.8 314.5 182.804 314.5 182.809 314.5C182.813 314.5 182.817 314.5 182.821 314.5C182.825 314.5 182.829 314.5 182.833 314.5C182.838 314.5 182.842 314.5 182.846 314.5C182.85 314.5 182.854 314.5 182.859 314.5C182.863 314.5 182.867 314.5 182.871 314.5C182.876 314.5 182.88 314.5 182.884 314.5C182.889 314.5 182.893 314.5 182.897 314.5C182.902 314.5 182.906 314.5 182.911 314.5C182.915 314.5 182.92 314.5 182.924 314.5C182.928 314.5 182.933 314.5 182.937 314.5C182.942 314.5 182.946 314.5 182.951 314.5C182.956 314.5 182.96 314.5 182.965 314.5C182.969 314.5 182.974 314.5 182.978 314.5C182.983 314.5 182.988 314.5 182.992 314.5C182.997 314.5 183.002 314.5 183.006 314.5C183.011 314.5 183.016 314.5 183.021 314.5C183.025 314.5 183.03 314.5 183.035 314.5C183.04 314.5 183.044 314.5 183.049 314.5C183.054 314.5 183.059 314.5 183.064 314.5C183.069 314.5 183.073 314.5 183.078 314.5C183.083 314.5 183.088 314.5 183.093 314.5C183.098 314.5 183.103 314.5 183.108 314.5C183.113 314.5 183.118 314.5 183.123 314.5C183.128 314.5 183.133 314.5 183.138 314.5C183.143 314.5 183.148 314.5 183.153 314.5C183.158 314.5 183.163 314.5 183.168 314.5C183.174 314.5 183.179 314.5 183.184 314.5C183.189 314.5 183.194 314.5 183.199 314.5C183.205 314.5 183.21 314.5 183.215 314.5C183.22 314.5 183.226 314.5 183.231 314.5C183.236 314.5 183.241 314.5 183.247 314.5C183.252 314.5 183.257 314.5 183.263 314.5C183.268 314.5 183.273 314.5 183.279 314.5C183.284 314.5 183.29 314.5 183.295 314.5C183.301 314.5 183.306 314.5 183.311 314.5C183.317 314.5 183.322 314.5 183.328 314.5C183.333 314.5 183.339 314.5 183.344 314.5C183.35 314.5 183.356 314.5 183.361 314.5C183.367 314.5 183.372 314.5 183.378 314.5C183.384 314.5 183.389 314.5 183.395 314.5C183.4 314.5 183.406 314.5 183.412 314.5C183.418 314.5 183.423 314.5 183.429 314.5C183.435 314.5 183.44 314.5 183.446 314.5C183.452 314.5 183.458 314.5 183.464 314.5C183.469 314.5 183.475 314.5 183.481 314.5C183.487 314.5 183.493 314.5 183.499 314.5C183.504 314.5 183.51 314.5 183.516 314.5C183.522 314.5 183.528 314.5 183.534 314.5C183.54 314.5 183.546 314.5 183.552 314.5C183.558 314.5 183.564 314.5 183.57 314.5C183.576 314.5 183.582 314.5 183.588 314.5C183.594 314.5 183.6 314.5 183.606 314.5C183.612 314.5 183.618 314.5 183.624 314.5C183.631 314.5 183.637 314.5 183.643 314.5C183.649 314.5 183.655 314.5 183.661 314.5C183.668 314.5 183.674 314.5 183.68 314.5C183.686 314.5 183.693 314.5 183.699 314.5C183.705 314.5 183.711 314.5 183.718 314.5C183.724 314.5 183.73 314.5 183.737 314.5C183.743 314.5 183.749 314.5 183.756 314.5C183.762 314.5 183.768 314.5 183.775 314.5C183.781 314.5 183.788 314.5 183.794 314.5C183.801 314.5 183.807 314.5 183.813 314.5C183.82 314.5 183.826 314.5 183.833 314.5C183.839 314.5 183.846 314.5 183.852 314.5C183.859 314.5 183.866 314.5 183.872 314.5C183.879 314.5 183.885 314.5 183.892 314.5C183.899 314.5 183.905 314.5 183.912 314.5C183.918 314.5 183.925 314.5 183.932 314.5C183.938 314.5 183.945 314.5 183.952 314.5C183.959 314.5 183.965 314.5 183.972 314.5C183.979 314.5 183.986 314.5 183.992 314.5C183.999 314.5 184.006 314.5 184.013 314.5C184.02 314.5 184.026 314.5 184.033 314.5C184.04 314.5 184.047 314.5 184.054 314.5C184.061 314.5 184.068 314.5 184.075 314.5C184.081 314.5 184.088 314.5 184.095 314.5C184.102 314.5 184.109 314.5 184.116 314.5C184.123 314.5 184.13 314.5 184.137 314.5C184.144 314.5 184.151 314.5 184.158 314.5C184.165 314.5 184.172 314.5 184.179 314.5C184.187 314.5 184.194 314.5 184.201 314.5C184.208 314.5 184.215 314.5 184.222 314.5C184.229 314.5 184.236 314.5 184.244 314.5C184.251 314.5 184.258 314.5 184.265 314.5C184.272 314.5 184.28 314.5 184.287 314.5C184.294 314.5 184.301 314.5 184.309 314.5C184.316 314.5 184.323 314.5 184.33 314.5C184.338 314.5 184.345 314.5 184.352 314.5C184.36 314.5 184.367 314.5 184.374 314.5C184.382 314.5 184.389 314.5 184.397 314.5C184.404 314.5 184.411 314.5 184.419 314.5C184.426 314.5 184.434 314.5 184.441 314.5C184.449 314.5 184.456 314.5 184.464 314.5C184.471 314.5 184.479 314.5 184.486 314.5C184.494 314.5 184.501 314.5 184.509 314.5C184.516 314.5 184.524 314.5 184.532 314.5C184.539 314.5 184.547 314.5 184.554 314.5C184.562 314.5 184.57 314.5 184.577 314.5C184.585 314.5 184.593 314.5 184.6 314.5C184.608 314.5 184.616 314.5 184.623 314.5C184.631 314.5 184.639 314.5 184.646 314.5C184.654 314.5 184.662 314.5 184.67 314.5C184.678 314.5 184.685 314.5 184.693 314.5C184.701 314.5 184.709 314.5 184.717 314.5C184.724 314.5 184.732 314.5 184.74 314.5C184.748 314.5 184.756 314.5 184.764 314.5C184.772 314.5 184.78 314.5 184.787 314.5C184.795 314.5 184.803 314.5 184.811 314.5C184.819 314.5 184.827 314.5 184.835 314.5C184.843 314.5 184.851 314.5 184.859 314.5C184.867 314.5 184.875 314.5 184.883 314.5C184.891 314.5 184.899 314.5 184.907 314.5C184.915 314.5 184.923 314.5 184.932 314.5C184.94 314.5 184.948 314.5 184.956 314.5C184.964 314.5 184.972 314.5 184.98 314.5C184.989 314.5 184.997 314.5 185.005 314.5C185.013 314.5 185.021 314.5 185.029 314.5C185.038 314.5 185.046 314.5 185.054 314.5C185.062 314.5 185.071 314.5 185.079 314.5C185.087 314.5 185.095 314.5 185.104 314.5C185.112 314.5 185.12 314.5 185.129 314.5C185.137 314.5 185.145 314.5 185.154 314.5C185.162 314.5 185.17 314.5 185.179 314.5C185.187 314.5 185.196 314.5 185.204 314.5C185.212 314.5 185.221 314.5 185.229 314.5C185.238 314.5 185.246 314.5 185.255 314.5C185.263 314.5 185.272 314.5 185.28 314.5C185.289 314.5 185.297 314.5 185.306 314.5C185.314 314.5 185.323 314.5 185.331 314.5C185.34 314.5 185.348 314.5 185.357 314.5C185.366 314.5 185.374 314.5 185.383 314.5C185.391 314.5 185.4 314.5 185.409 314.5C185.417 314.5 185.426 314.5 185.435 314.5C185.443 314.5 185.452 314.5 185.461 314.5C185.469 314.5 185.478 314.5 185.487 314.5C185.495 314.5 185.504 314.5 185.513 314.5C185.522 314.5 185.53 314.5 185.539 314.5C185.548 314.5 185.557 314.5 185.565 314.5C185.574 314.5 185.583 314.5 185.592 314.5C185.601 314.5 185.61 314.5 185.618 314.5C185.627 314.5 185.636 314.5 185.645 314.5C185.654 314.5 185.663 314.5 185.672 314.5C185.681 314.5 185.689 314.5 185.698 314.5C185.707 314.5 185.716 314.5 185.725 314.5C185.734 314.5 185.743 314.5 185.752 314.5C185.761 314.5 185.77 314.5 185.779 314.5C185.788 314.5 185.797 314.5 185.806 314.5C185.815 314.5 185.824 314.5 185.833 314.5C185.842 314.5 185.851 314.5 185.86 314.5C185.87 314.5 185.879 314.5 185.888 314.5C185.897 314.5 185.906 314.5 185.915 314.5C185.924 314.5 185.933 314.5 185.943 314.5C185.952 314.5 185.961 314.5 185.97 314.5C185.979 314.5 185.988 314.5 185.998 314.5C186.007 314.5 186.016 314.5 186.025 314.5C186.035 314.5 186.044 314.5 186.053 314.5C186.062 314.5 186.072 314.5 186.081 314.5C186.09 314.5 186.099 314.5 186.109 314.5C186.118 314.5 186.127 314.5 186.137 314.5C186.146 314.5 186.155 314.5 186.165 314.5C186.174 314.5 186.183 314.5 186.193 314.5C186.202 314.5 186.212 314.5 186.221 314.5C186.23 314.5 186.24 314.5 186.249 314.5C186.259 314.5 186.268 314.5 186.278 314.5C186.287 314.5 186.296 314.5 186.306 314.5C186.315 314.5 186.325 314.5 186.334 314.5C186.344 314.5 186.353 314.5 186.363 314.5C186.372 314.5 186.382 314.5 186.392 314.5C186.401 314.5 186.411 314.5 186.42 314.5C186.43 314.5 186.439 314.5 186.449 314.5C186.459 314.5 186.468 314.5 186.478 314.5C186.487 314.5 186.497 314.5 186.507 314.5C186.516 314.5 186.526 314.5 186.536 314.5C186.545 314.5 186.555 314.5 186.565 314.5C186.574 314.5 186.584 314.5 186.594 314.5C186.603 314.5 186.613 314.5 186.623 314.5C186.633 314.5 186.642 314.5 186.652 314.5C186.662 314.5 186.672 314.5 186.681 314.5C186.691 314.5 186.701 314.5 186.711 314.5C186.72 314.5 186.73 314.5 186.74 314.5C186.75 314.5 186.76 314.5 186.77 314.5C186.779 314.5 186.789 314.5 186.799 314.5C186.809 314.5 186.819 314.5 186.829 314.5C186.839 314.5 186.849 314.5 186.858 314.5C186.868 314.5 186.878 314.5 186.888 314.5C186.898 314.5 186.908 314.5 186.918 314.5C186.928 314.5 186.938 314.5 186.948 314.5C186.958 314.5 186.968 314.5 186.978 314.5C186.988 314.5 186.998 314.5 187.008 314.5C187.018 314.5 187.028 314.5 187.038 314.5C187.048 314.5 187.058 314.5 187.068 314.5C187.078 314.5 187.088 314.5 187.098 314.5C187.108 314.5 187.118 314.5 187.129 314.5C187.139 314.5 187.149 314.5 187.159 314.5C187.169 314.5 187.179 314.5 187.189 314.5C187.199 314.5 187.21 314.5 187.22 314.5C187.23 314.5 187.24 314.5 187.25 314.5C187.26 314.5 187.271 314.5 187.281 314.5C187.291 314.5 187.301 314.5 187.311 314.5C187.322 314.5 187.332 314.5 187.342 314.5C187.352 314.5 187.363 314.5 187.373 314.5C187.383 314.5 187.393 314.5 187.404 314.5C187.414 314.5 187.424 314.5 187.435 314.5C187.445 314.5 187.455 314.5 187.466 314.5C187.476 314.5 187.486 314.5 187.497 314.5C187.507 314.5 187.517 314.5 187.528 314.5C187.538 314.5 187.548 314.5 187.559 314.5C187.569 314.5 187.58 314.5 187.59 314.5C187.6 314.5 187.611 314.5 187.621 314.5C187.632 314.5 187.642 314.5 187.652 314.5C187.663 314.5 187.673 314.5 187.684 314.5C187.694 314.5 187.705 314.5 187.715 314.5C187.726 314.5 187.736 314.5 187.747 314.5C187.757 314.5 187.768 314.5 187.778 314.5C187.789 314.5 187.799 314.5 187.81 314.5C187.82 314.5 187.831 314.5 187.841 314.5C187.852 314.5 187.862 314.5 187.873 314.5C187.884 314.5 187.894 314.5 187.905 314.5C187.915 314.5 187.926 314.5 187.937 314.5C187.947 314.5 187.958 314.5 187.968 314.5C187.979 314.5 187.99 314.5 188 314.5C188.011 314.5 188.022 314.5 188.032 314.5C188.043 314.5 188.054 314.5 188.064 314.5C188.075 314.5 188.086 314.5 188.096 314.5C188.107 314.5 188.118 314.5 188.128 314.5C188.139 314.5 188.15 314.5 188.161 314.5C188.171 314.5 188.182 314.5 188.193 314.5C188.204 314.5 188.214 314.5 188.225 314.5C188.236 314.5 188.247 314.5 188.257 314.5C188.268 314.5 188.279 314.5 188.29 314.5C188.301 314.5 188.311 314.5 188.322 314.5C188.333 314.5 188.344 314.5 188.355 314.5C188.365 314.5 188.376 314.5 188.387 314.5C188.398 314.5 188.409 314.5 188.42 314.5C188.431 314.5 188.441 314.5 188.452 314.5C188.463 314.5 188.474 314.5 188.485 314.5C188.496 314.5 188.507 314.5 188.518 314.5C188.529 314.5 188.54 314.5 188.551 314.5C188.561 314.5 188.572 314.5 188.583 314.5C188.594 314.5 188.605 314.5 188.616 314.5C188.627 314.5 188.638 314.5 188.649 314.5C188.66 314.5 188.671 314.5 188.682 314.5C188.693 314.5 188.704 314.5 188.715 314.5C188.726 314.5 188.737 314.5 188.748 314.5C188.759 314.5 188.77 314.5 188.781 314.5C188.792 314.5 188.803 314.5 188.814 314.5C188.825 314.5 188.837 314.5 188.848 314.5C188.859 314.5 188.87 314.5 188.881 314.5C188.892 314.5 188.903 314.5 188.914 314.5C188.925 314.5 188.936 314.5 188.947 314.5C188.959 314.5 188.97 314.5 188.981 314.5C188.992 314.5 189.003 314.5 189.014 314.5C189.025 314.5 189.037 314.5 189.048 314.5C189.059 314.5 189.07 314.5 189.081 314.5C189.092 314.5 189.104 314.5 189.115 314.5C189.126 314.5 189.137 314.5 189.148 314.5C189.16 314.5 189.171 314.5 189.182 314.5C189.193 314.5 189.204 314.5 189.216 314.5C189.227 314.5 189.238 314.5 189.249 314.5C189.261 314.5 189.272 314.5 189.283 314.5C189.294 314.5 189.306 314.5 189.317 314.5C189.328 314.5 189.339 314.5 189.351 314.5C189.362 314.5 189.373 314.5 189.385 314.5C189.396 314.5 189.407 314.5 189.419 314.5C189.43 314.5 189.441 314.5 189.453 314.5C189.464 314.5 189.475 314.5 189.487 314.5C189.498 314.5 189.509 314.5 189.521 314.5C189.532 314.5 189.543 314.5 189.555 314.5C189.566 314.5 189.577 314.5 189.589 314.5C189.6 314.5 189.612 314.5 189.623 314.5C189.634 314.5 189.646 314.5 189.657 314.5C189.669 314.5 189.68 314.5 189.691 314.5C189.703 314.5 189.714 314.5 189.726 314.5C189.737 314.5 189.749 314.5 189.76 314.5C189.771 314.5 189.783 314.5 189.794 314.5C189.806 314.5 189.817 314.5 189.829 314.5C189.84 314.5 189.852 314.5 189.863 314.5C189.875 314.5 189.886 314.5 189.898 314.5C189.909 314.5 189.921 314.5 189.932 314.5C189.944 314.5 189.955 314.5 189.967 314.5C189.978 314.5 189.99 314.5 190.001 314.5C190.013 314.5 190.024 314.5 190.036 314.5C190.047 314.5 190.059 314.5 190.07 314.5C190.082 314.5 190.094 314.5 190.105 314.5C190.117 314.5 190.128 314.5 190.14 314.5C190.151 314.5 190.163 314.5 190.175 314.5C190.186 314.5 190.198 314.5 190.209 314.5C190.221 314.5 190.233 314.5 190.244 314.5C190.256 314.5 190.267 314.5 190.279 314.5C190.291 314.5 190.302 314.5 190.314 314.5C190.326 314.5 190.337 314.5 190.349 314.5C190.36 314.5 190.372 314.5 190.384 314.5C190.395 314.5 190.407 314.5 190.419 314.5C190.43 314.5 190.442 314.5 190.454 314.5C190.465 314.5 190.477 314.5 190.489 314.5C190.5 314.5 190.512 314.5 190.524 314.5C190.535 314.5 190.547 314.5 190.559 314.5C190.571 314.5 190.582 314.5 190.594 314.5C190.606 314.5 190.617 314.5 190.629 314.5C190.641 314.5 190.653 314.5 190.664 314.5C190.676 314.5 190.688 314.5 190.7 314.5C190.711 314.5 190.723 314.5 190.735 314.5C190.747 314.5 190.758 314.5 190.77 314.5C190.782 314.5 190.794 314.5 190.805 314.5C190.817 314.5 190.829 314.5 190.841 314.5C190.852 314.5 190.864 314.5 190.876 314.5C190.888 314.5 190.9 314.5 190.911 314.5C190.923 314.5 190.935 314.5 190.947 314.5C190.959 314.5 190.97 314.5 190.982 314.5C190.994 314.5 191.006 314.5 191.018 314.5C191.029 314.5 191.041 314.5 191.053 314.5C191.065 314.5 191.077 314.5 191.089 314.5C191.1 314.5 191.112 314.5 191.124 314.5C191.136 314.5 191.148 314.5 191.16 314.5C191.172 314.5 191.183 314.5 191.195 314.5C191.207 314.5 191.219 314.5 191.231 314.5C191.243 314.5 191.255 314.5 191.267 314.5C191.278 314.5 191.29 314.5 191.302 314.5C191.314 314.5 191.326 314.5 191.338 314.5C191.35 314.5 191.362 314.5 191.374 314.5C191.385 314.5 191.397 314.5 191.409 314.5C191.421 314.5 191.433 314.5 191.445 314.5C191.457 314.5 191.469 314.5 191.481 314.5C191.493 314.5 191.505 314.5 191.517 314.5C191.529 314.5 191.54 314.5 191.552 314.5C191.564 314.5 191.576 314.5 191.588 314.5C191.6 314.5 191.612 314.5 191.624 314.5C191.636 314.5 191.648 314.5 191.66 314.5C191.672 314.5 191.684 314.5 191.696 314.5C191.708 314.5 191.72 314.5 191.732 314.5C191.744 314.5 191.756 314.5 191.768 314.5C191.78 314.5 191.792 314.5 191.804 314.5C191.816 314.5 191.828 314.5 191.84 314.5C191.852 314.5 191.864 314.5 191.876 314.5C191.888 314.5 191.9 314.5 191.912 314.5C191.924 314.5 191.936 314.5 191.948 314.5C191.96 314.5 191.972 314.5 191.984 314.5C191.996 314.5 192.008 314.5 192.02 314.5C192.032 314.5 192.044 314.5 192.056 314.5C192.068 314.5 192.08 314.5 192.092 314.5C192.104 314.5 192.116 314.5 192.128 314.5C192.14 314.5 192.152 314.5 192.164 314.5C192.176 314.5 192.188 314.5 192.2 314.5C192.212 314.5 192.224 314.5 192.236 314.5C192.249 314.5 192.261 314.5 192.273 314.5C192.285 314.5 192.297 314.5 192.309 314.5C192.321 314.5 192.333 314.5 192.345 314.5C192.357 314.5 192.369 314.5 192.381 314.5C192.393 314.5 192.405 314.5 192.417 314.5C192.43 314.5 192.442 314.5 192.454 314.5C192.466 314.5 192.478 314.5 192.49 314.5C192.502 314.5 192.514 314.5 192.526 314.5C192.538 314.5 192.55 314.5 192.563 314.5C192.575 314.5 192.587 314.5 192.599 314.5C192.611 314.5 192.623 314.5 192.635 314.5C192.647 314.5 192.659 314.5 192.671 314.5C192.684 314.5 192.696 314.5 192.708 314.5C192.72 314.5 192.732 314.5 192.744 314.5C192.756 314.5 192.768 314.5 192.781 314.5C192.793 314.5 192.805 314.5 192.817 314.5C192.829 314.5 192.841 314.5 192.853 314.5C192.865 314.5 192.877 314.5 192.89 314.5C192.902 314.5 192.914 314.5 192.926 314.5C192.938 314.5 192.95 314.5 192.962 314.5C192.975 314.5 192.987 314.5 192.999 314.5C193.011 314.5 193.023 314.5 193.035 314.5C193.047 314.5 193.06 314.5 193.072 314.5C193.084 314.5 193.096 314.5 193.108 314.5C193.12 314.5 193.132 314.5 193.145 314.5C193.157 314.5 193.169 314.5 193.181 314.5C193.193 314.5 193.205 314.5 193.217 314.5C193.23 314.5 193.242 314.5 193.254 314.5C193.266 314.5 193.278 314.5 193.29 314.5C193.303 314.5 193.315 314.5 193.327 314.5C193.339 314.5 193.351 314.5 193.363 314.5C193.376 314.5 193.388 314.5 193.4 314.5C193.412 314.5 193.424 314.5 193.436 314.5C193.449 314.5 193.461 314.5 193.473 314.5C193.485 314.5 193.497 314.5 193.509 314.5C193.522 314.5 193.534 314.5 193.546 314.5C193.558 314.5 193.57 314.5 193.582 314.5C193.595 314.5 193.607 314.5 193.619 314.5C193.631 314.5 193.643 314.5 193.655 314.5C193.668 314.5 193.68 314.5 193.692 314.5C193.704 314.5 193.716 314.5 193.728 314.5C193.741 314.5 193.753 314.5 193.765 314.5C193.777 314.5 193.789 314.5 193.802 314.5C193.814 314.5 193.826 314.5 193.838 314.5C193.85 314.5 193.862 314.5 193.875 314.5C193.887 314.5 193.899 314.5 193.911 314.5C193.923 314.5 193.935 314.5 193.948 314.5C193.96 314.5 193.972 314.5 193.984 314.5C193.996 314.5 194.009 314.5 194.021 314.5C194.033 314.5 194.045 314.5 194.057 314.5C194.069 314.5 194.082 314.5 194.094 314.5C194.106 314.5 194.118 314.5 194.13 314.5C194.143 314.5 194.155 314.5 194.167 314.5C194.179 314.5 194.191 314.5 194.203 314.5C194.216 314.5 194.228 314.5 194.24 314.5C194.252 314.5 194.264 314.5 194.276 314.5C194.289 314.5 194.301 314.5 194.313 314.5C194.325 314.5 194.337 314.5 194.35 314.5C194.362 314.5 194.374 314.5 194.386 314.5C194.398 314.5 194.41 314.5 194.423 314.5C194.435 314.5 194.447 314.5 194.459 314.5C194.471 314.5 194.483 314.5 194.496 314.5C194.508 314.5 194.52 314.5 194.532 314.5C194.544 314.5 194.556 314.5 194.569 314.5C194.581 314.5 194.593 314.5 194.605 314.5C194.617 314.5 194.629 314.5 194.642 314.5C194.654 314.5 194.666 314.5 194.678 314.5C194.69 314.5 194.702 314.5 194.715 314.5C194.727 314.5 194.739 314.5 194.751 314.5C194.763 314.5 194.775 314.5 194.787 314.5C194.8 314.5 194.812 314.5 194.824 314.5C194.836 314.5 194.848 314.5 194.86 314.5C194.873 314.5 194.885 314.5 194.897 314.5C194.909 314.5 194.921 314.5 194.933 314.5C194.945 314.5 194.958 314.5 194.97 314.5C194.982 314.5 194.994 314.5 195.006 314.5C195.018 314.5 195.03 314.5 195.043 314.5C195.055 314.5 195.067 314.5 195.079 314.5C195.091 314.5 195.103 314.5 195.115 314.5C195.127 314.5 195.14 314.5 195.152 314.5C195.164 314.5 195.176 314.5 195.188 314.5C195.2 314.5 195.212 314.5 195.224 314.5C195.237 314.5 195.249 314.5 195.261 314.5C195.273 314.5 195.285 314.5 195.297 314.5C195.309 314.5 195.321 314.5 195.334 314.5C195.346 314.5 195.358 314.5 195.37 314.5C195.382 314.5 195.394 314.5 195.406 314.5C195.418 314.5 195.43 314.5 195.442 314.5C195.455 314.5 195.467 314.5 195.479 314.5C195.491 314.5 195.503 314.5 195.515 314.5C195.527 314.5 195.539 314.5 195.551 314.5C195.563 314.5 195.575 314.5 195.588 314.5C195.6 314.5 195.612 314.5 195.624 314.5C195.636 314.5 195.648 314.5 195.66 314.5C195.672 314.5 195.684 314.5 195.696 314.5C195.708 314.5 195.72 314.5 195.732 314.5C195.744 314.5 195.756 314.5 195.769 314.5C195.781 314.5 195.793 314.5 195.805 314.5C195.817 314.5 195.829 314.5 195.841 314.5C195.853 314.5 195.865 314.5 195.877 314.5C195.889 314.5 195.901 314.5 195.913 314.5C195.925 314.5 195.937 314.5 195.949 314.5C195.961 314.5 195.973 314.5 195.985 314.5C195.997 314.5 196.009 314.5 196.021 314.5C196.033 314.5 196.045 314.5 196.057 314.5C196.069 314.5 196.081 314.5 196.093 314.5C196.105 314.5 196.117 314.5 196.129 314.5C196.141 314.5 196.153 314.5 196.165 314.5C196.177 314.5 196.189 314.5 196.201 314.5C196.213 314.5 196.225 314.5 196.237 314.5C196.249 314.5 196.261 314.5 196.273 314.5C196.285 314.5 196.297 314.5 196.309 314.5C196.321 314.5 196.333 314.5 196.345 314.5C196.357 314.5 196.369 314.5 196.381 314.5C196.393 314.5 196.405 314.5 196.417 314.5C196.429 314.5 196.441 314.5 196.453 314.5C196.465 314.5 196.477 314.5 196.488 314.5C196.5 314.5 196.512 314.5 196.524 314.5C196.536 314.5 196.548 314.5 196.56 314.5C196.572 314.5 196.584 314.5 196.596 314.5C196.608 314.5 196.62 314.5 196.631 314.5C196.643 314.5 196.655 314.5 196.667 314.5C196.679 314.5 196.691 314.5 196.703 314.5C196.715 314.5 196.727 314.5 196.739 314.5C196.75 314.5 196.762 314.5 196.774 314.5C196.786 314.5 196.798 314.5 196.81 314.5C196.822 314.5 196.833 314.5 196.845 314.5C196.857 314.5 196.869 314.5 196.881 314.5C196.893 314.5 196.905 314.5 196.916 314.5C196.928 314.5 196.94 314.5 196.952 314.5C196.964 314.5 196.976 314.5 196.987 314.5C196.999 314.5 197.011 314.5 197.023 314.5C197.035 314.5 197.047 314.5 197.058 314.5C197.07 314.5 197.082 314.5 197.094 314.5C197.106 314.5 197.117 314.5 197.129 314.5C197.141 314.5 197.153 314.5 197.164 314.5C197.176 314.5 197.188 314.5 197.2 314.5C197.212 314.5 197.223 314.5 197.235 314.5C197.247 314.5 197.259 314.5 197.27 314.5C197.282 314.5 197.294 314.5 197.306 314.5C197.317 314.5 197.329 314.5 197.341 314.5C197.353 314.5 197.364 314.5 197.376 314.5C197.388 314.5 197.399 314.5 197.411 314.5C197.423 314.5 197.435 314.5 197.446 314.5C197.458 314.5 197.47 314.5 197.481 314.5C197.493 314.5 197.505 314.5 197.516 314.5C197.528 314.5 197.54 314.5 197.551 314.5C197.563 314.5 197.575 314.5 197.586 314.5V254.5ZM182.598 254.5C166.488 254.5 155.952 264.002 150.59 271.806C145.694 278.931 143.462 286.62 142.332 291.552C141.098 296.941 140.547 301.973 140.284 305.419C140.148 307.205 140.077 308.719 140.041 309.837C140.022 310.399 140.012 310.869 140.007 311.233C140.004 311.415 140.002 311.571 140.001 311.699C140.001 311.763 140 311.821 140 311.871C140 311.896 140 311.919 140 311.941C140 311.952 140 311.962 140 311.972C140 311.977 140 311.984 140 311.986C140 311.993 140 312 170 312C200 312 200 312.006 200 312.013C200 312.015 200 312.021 200 312.026C200 312.034 200 312.042 200 312.049C200 312.064 200 312.077 200 312.089C200 312.113 200 312.131 200 312.143C199.999 312.167 199.999 312.168 200 312.149C200 312.11 200.002 311.989 200.009 311.799C200.021 311.414 200.049 310.779 200.11 309.987C200.24 308.277 200.477 306.433 200.817 304.948C200.894 304.613 200.964 304.352 201.02 304.16C201.077 303.966 201.109 303.884 201.103 303.9C201.098 303.913 201.033 304.084 200.884 304.378C200.738 304.669 200.469 305.162 200.04 305.787C199.227 306.97 197.453 309.179 194.316 311.136C190.915 313.257 186.818 314.5 182.598 314.5V254.5ZM187.885 298.129H197.584V238.129H187.885V298.129ZM178.211 298.129C179.955 298.129 182.373 298.129 184.355 298.129C185.347 298.129 186.229 298.129 186.863 298.129C187.181 298.129 187.436 298.129 187.612 298.129C187.7 298.129 187.768 298.129 187.814 298.129C187.837 298.129 187.855 298.129 187.867 298.129C187.873 298.129 187.877 298.129 187.88 298.129C187.882 298.129 187.883 298.129 187.883 298.129C187.884 298.129 187.884 298.129 187.884 298.129C187.884 298.129 187.884 298.129 187.885 298.129C187.885 298.129 187.885 298.129 187.885 268.129C187.885 238.129 187.885 238.129 187.885 238.129C187.885 238.129 187.884 238.129 187.884 238.129C187.884 238.129 187.884 238.129 187.883 238.129C187.883 238.129 187.882 238.129 187.88 238.129C187.877 238.129 187.873 238.129 187.867 238.129C187.855 238.129 187.837 238.129 187.814 238.129C187.768 238.129 187.7 238.129 187.612 238.129C187.436 238.129 187.181 238.129 186.863 238.129C186.229 238.129 185.347 238.129 184.355 238.129C182.373 238.129 179.955 238.129 178.211 238.129L178.211 298.129ZM197.586 314.5C218.688 314.5 235.769 297.391 235.769 276.314H175.769C175.769 264.279 185.526 254.5 197.586 254.5V314.5ZM197.584 298.129C185.536 298.129 175.769 288.362 175.769 276.314H235.769C235.769 255.225 218.673 238.129 197.584 238.129V298.129ZM200 276.34C200 288.374 190.245 298.129 178.211 298.129L178.211 238.129C157.108 238.129 140 255.237 140 276.34H200Z" fill="url(#paint1_linear_79_7518)" mask="url(#path-2-inside-1_79_7518)"/>
<path d="M0 120C0 96.4298 0 84.6447 7.32233 77.3223C14.6447 70 26.4276 70 49.9934 70C64.8391 70 80.9519 70 95.2673 70C135.723 70 207.5 70 207.5 70H365C388.57 70 400.355 70 407.678 77.3223C415 84.6447 415 96.4298 415 120V129.892V139.783C415 163.354 415 175.139 407.678 182.461C400.355 189.783 388.595 189.783 365.076 189.783C294.199 189.783 170.294 189.783 146.164 189.783C0 189.783 0 391 0 391V120Z" fill="#2768FF" fill-opacity="0.2"/>
<path d="M0 81C0 57.4298 0 45.6447 7.32233 38.3223C14.6447 31 26.4276 31 49.9934 31C64.8391 31 80.9519 31 95.2673 31C135.723 31 207.5 31 207.5 31H365C388.57 31 400.355 31 407.678 38.3223C415 45.6447 415 57.4298 415 81V90.8918V100.783C415 124.354 415 136.139 407.678 143.461C400.355 150.783 388.595 150.783 365.076 150.783C294.199 150.783 170.294 150.783 146.164 150.783C0 150.783 0 352 0 352V81Z" fill="#2669FF" fill-opacity="0.4"/>
<path d="M0 43C0 19.4298 0 7.64467 7.32233 0.322342C14.6447 -6.99999 26.4276 -6.99999 49.9934 -6.99999C64.8391 -6.99999 80.9519 -6.99999 95.2673 -6.99999C135.723 -7.00001 207.5 -6.99999 207.5 -6.99999H365C388.57 -6.99999 400.355 -6.99999 407.678 0.322337C415 7.64467 415 19.4298 415 43V52.8918V62.7835C415 86.3537 415 98.1388 407.678 105.461C400.355 112.783 388.595 112.783 365.076 112.783C294.199 112.783 170.294 112.783 146.164 112.783C0 112.783 0 314 0 314V43Z" fill="#2669FF" fill-opacity="0.7"/>
<path d="M0 3.00002C0 -20.5702 0 -32.3553 7.32233 -39.6777C14.6447 -47 26.4279 -47 49.9943 -47C63.0918 -47 77.0381 -47 89.5283 -47C127.547 -47 195 -47 195 -47H340C363.57 -47 375.355 -47 382.678 -39.6777C390 -32.3553 390 -20.5702 390 3.00002V12.8918V22.7835C390 46.3537 390 58.1388 382.678 65.4612C375.355 72.7835 363.588 72.7835 340.052 72.7835C273.003 72.7835 159.695 72.7835 137.358 72.7835C0 72.7835 0 274 0 274V3.00002Z" fill="#2669FF"/>
<path d="M87.4407 83.2544C87.2768 82.5457 86.9782 81.8757 86.5624 81.2836C86.1467 80.6915 85.622 80.1892 85.0192 79.8061C85.5098 78.7213 85.6326 77.4925 85.3681 76.315C85.2112 75.6255 84.9235 74.973 84.5217 74.3956C84.1199 73.8182 83.6121 73.3275 83.0279 72.952C81.7811 72.1313 80.2781 71.8492 78.848 72.1675L67.7975 74.7L67.4133 69.7541C67.363 69.1257 67.2671 68.5015 67.1263 67.8865C66.0423 63.1566 61.702 58.3621 57.731 59.2722C56.5799 59.5368 55.5612 60.211 54.8516 61.1778L54.5231 61.6253L56.9013 69.3537C57.1043 70.0097 57.102 70.712 56.8949 71.3598L53.4968 84.4249L53.3162 84.679C53.1215 84.1727 52.7584 83.7527 52.2931 83.4952C51.8279 83.2377 51.2912 83.1599 50.7808 83.2759L39.0063 85.9743C38.4426 86.1041 37.9553 86.4605 37.6513 86.9654C37.3474 87.4702 37.2516 88.0822 37.385 88.667L42.6635 111.7C42.7981 112.285 43.1508 112.794 43.6443 113.116C44.1377 113.438 44.7316 113.547 45.2956 113.418L57.0712 110.72C57.6341 110.589 58.1205 110.232 58.4237 109.728C58.727 109.223 58.8224 108.612 58.6891 108.028L58.4231 106.867L58.4429 106.877C61.0513 108.293 63.8593 107.673 63.9789 107.645L81.6734 103.583L81.7299 103.57C82.4715 103.356 83.1557 102.975 83.734 102.453C84.3123 101.932 84.7705 101.284 85.076 100.555C85.3814 99.8263 85.5268 99.0342 85.5016 98.2352C85.4764 97.4362 85.2814 96.65 84.9304 95.9323C86.0469 95.092 86.7896 93.8243 86.9967 92.4056C87.2037 90.987 86.8582 89.5324 86.0355 88.359C86.6771 87.712 87.1435 86.9022 87.3897 86.0079C87.6359 85.1137 87.6534 84.1652 87.4407 83.2544ZM56.6234 108.501C56.6259 108.517 56.6228 108.533 56.6148 108.546C56.6067 108.56 56.5942 108.569 56.5795 108.574L44.8039 111.272C44.7888 111.275 44.7733 111.271 44.7604 111.263C44.7475 111.254 44.738 111.241 44.7337 111.226L39.4552 88.1926C39.4525 88.177 39.4553 88.1611 39.4632 88.1477C39.4711 88.1343 39.4834 88.1245 39.498 88.12L51.2736 85.4213C51.2888 85.419 51.3044 85.4224 51.3175 85.431C51.3306 85.4395 51.3403 85.4526 51.3449 85.4678L56.6234 108.501ZM83.9191 87.2538L82.6193 88.029L83.7838 89.043C84.2008 89.4049 84.522 89.8705 84.7163 90.3947C84.9105 90.9189 84.9712 91.484 84.8925 92.0351C84.8139 92.5861 84.5984 93.1047 84.2671 93.5404C83.9358 93.9761 83.4999 94.3142 83.0015 94.522L81.6536 95.0871L82.6103 96.2465C82.9516 96.6608 83.1887 97.155 83.3002 97.6842C83.4118 98.2134 83.3941 98.7608 83.2489 99.277C83.1037 99.7932 82.8356 100.262 82.4687 100.64C82.1019 101.018 81.648 101.295 81.1482 101.444L63.4938 105.498C63.4418 105.51 61.2963 105.956 59.4144 104.934C59.0583 104.732 58.677 104.584 58.2821 104.492L57.8583 104.402L53.9797 87.4777L55.4466 85.4232L58.9242 72.0596C59.2621 70.9828 59.263 69.8184 58.9267 68.7301L56.8995 62.1416C57.2714 61.789 57.7272 61.5439 58.2221 61.4301C60.9044 60.8154 64.2225 64.7337 65.0562 68.3718C65.1718 68.8768 65.2504 69.3896 65.2912 69.9057L65.8746 77.4087L79.3463 74.3214C80.2246 74.1283 81.1468 74.3031 81.9116 74.8077C82.2566 75.028 82.5568 75.3163 82.7947 75.656C83.0326 75.9956 83.2034 76.3798 83.2971 76.786C83.406 77.2735 83.4046 77.7786 83.293 78.2618C83.1814 78.745 82.9626 79.1932 82.6537 79.5712L81.6274 80.8432L83.1787 81.3335C83.7689 81.5186 84.2964 81.8773 84.6964 82.3652C85.0964 82.8531 85.3513 83.4491 85.4298 84.0796C85.5083 84.7101 85.4069 85.3477 85.1381 85.9137C84.8693 86.4797 84.4448 86.9495 83.9171 87.2652L83.9191 87.2538Z" fill="white"/>
<circle cx="151.11" cy="141.115" r="11.5" transform="rotate(-45 151.11 141.115)" stroke="white" stroke-width="7"/>
<rect x="155.581" y="151.623" width="7" height="17.5364" transform="rotate(-45 155.581 151.623)" fill="white"/>
<path d="M32.0704 166.841C17.2019 169.501 7.05512 183.174 9.55793 197.167C10.9002 204.672 15.7185 211.044 22.6416 214.797L24.0222 222.517C24.1206 223.067 24.497 223.527 25.0161 223.731C25.5256 223.934 26.1137 223.864 26.5713 223.525L33.726 218.069C36.1961 218.269 38.6969 218.146 41.1674 217.704C56.036 215.045 66.2015 201.477 63.6988 187.484C61.196 173.49 46.939 164.182 32.0704 166.841ZM52.488 182.328L42.6356 200.459C42.1651 201.322 41.0618 201.543 40.2982 201.011L33.7718 196.465L23.1482 204.385C22.5438 204.836 21.702 204.808 21.1306 204.312C20.5578 203.816 20.4082 202.989 20.7687 202.324L30.6211 184.193C30.84 183.791 31.2215 183.5 31.666 183.395C32.119 183.282 32.5819 183.377 32.9585 183.64L39.4845 188.186L50.1081 180.266C50.715 179.815 51.5564 179.846 52.1261 180.34C52.6989 180.835 52.8485 181.662 52.488 182.328Z" fill="white"/>
<g clip-path="url(#clip0_79_7518)">
<path d="M217.404 58.8209L186.07 48.4712C185.289 48.2133 184.45 48.63 184.195 49.4018L181.887 56.3895L175.761 54.3663C174.98 54.1084 174.141 54.525 173.886 55.2969L166.192 78.5892C165.259 81.4145 166.825 84.4815 169.683 85.4254L200.075 95.4638C203.452 96.5794 207.097 94.7702 208.2 91.4311L218.356 60.6853C218.611 59.9134 218.184 59.0787 217.404 58.8209ZM173.731 81.0792C173.307 82.3636 171.905 83.0594 170.606 82.6303C169.307 82.2012 168.595 80.8073 169.02 79.5229L176.251 57.6282L180.963 59.1846L173.731 81.0792L173.731 81.0792ZM205.373 90.4972C204.779 92.295 202.816 93.2693 200.998 92.6687L175.222 84.1549C175.816 83.5755 176.282 82.8511 176.559 82.013L186.56 51.7332L215.067 61.149L205.373 90.4972Z" fill="white"/>
<path d="M209.418 62.7449L190.099 56.3639C189.318 56.106 188.479 56.5226 188.224 57.2945L185.147 66.6114C184.892 67.3833 185.318 68.2179 186.099 68.4758L205.417 74.8568C206.198 75.1147 207.037 74.6981 207.292 73.9262L210.37 64.6093C210.625 63.8374 210.199 63.0028 209.418 62.7449ZM204.927 71.5948L188.435 66.1476L190.589 59.6259L207.081 65.073L204.927 71.5948Z" fill="white"/>
<path d="M193.513 76.0912L184.796 73.212C184.016 72.9541 183.176 73.3708 182.921 74.1427C182.666 74.9145 183.092 75.7492 183.873 76.0071L192.59 78.8863C193.371 79.1442 194.21 78.7276 194.465 77.9557C194.72 77.1838 194.294 76.3491 193.513 76.0912Z" fill="white"/>
<path d="M200.936 85.2601L182.795 79.2682C182.015 79.0103 181.175 79.4269 180.92 80.1988C180.665 80.9707 181.091 81.8054 181.872 82.0633L200.013 88.0551C200.794 88.313 201.633 87.8964 201.888 87.1245C202.143 86.3526 201.717 85.518 200.936 85.2601Z" fill="white"/>
</g>
<defs>
<linearGradient id="paint0_linear_79_7518" x1="197.692" y1="232" x2="197.692" y2="264.705" gradientUnits="userSpaceOnUse">
<stop stop-color="#384CFF"/>
<stop offset="1" stop-color="#00A3FF" stop-opacity="0.76"/>
</linearGradient>
<linearGradient id="paint1_linear_79_7518" x1="189.811" y1="268.129" x2="189.811" y2="299.017" gradientUnits="userSpaceOnUse">
<stop stop-color="#384CFF"/>
<stop offset="1" stop-color="#00A3FF" stop-opacity="0.76"/>
</linearGradient>
<clipPath id="clip0_79_7518">
<rect width="43.9159" height="43.4179" fill="white" transform="translate(177.617 44) rotate(18.2785)"/>
</clipPath>
</defs>
</svg>
