<svg width="331" height="218" viewBox="0 0 331 218" fill="none" xmlns="http://www.w3.org/2000/svg">
<g clip-path="url(#clip0_79_7707)">
<path d="M305.527 126.963C305.53 127.05 305.501 127.134 305.444 127.199C305.385 127.269 305.301 127.312 305.21 127.319C305.119 127.326 305.029 127.297 304.959 127.237L303.806 126.237L284.198 109.254L229.203 61.6128C228.89 61.3428 228.49 61.1947 228.077 61.1954C227.664 61.196 227.265 61.3453 226.952 61.6163L152.894 126.306L152.226 126.887C152.2 126.91 152.171 126.929 152.14 126.943C152.085 126.967 152.024 126.977 151.964 126.97C151.878 126.961 151.798 126.921 151.74 126.856C151.71 126.822 151.687 126.782 151.673 126.739C151.658 126.697 151.652 126.651 151.655 126.606C151.658 126.56 151.67 126.516 151.69 126.475C151.709 126.435 151.737 126.398 151.771 126.368L151.864 126.285L226.501 61.0937C226.94 60.715 227.498 60.5062 228.076 60.5049C228.655 60.5036 229.214 60.71 229.654 61.0868L284.666 108.741L305.407 126.711C305.443 126.742 305.472 126.781 305.493 126.825C305.514 126.868 305.525 126.915 305.527 126.963Z" fill="#3F3D56"/>
<path d="M263.712 137.184L262.807 134.678L259.688 126.026L252.969 107.395L245.458 86.5701L231.912 49.0079C231.646 48.2754 231.102 47.6787 230.399 47.3486C229.697 47.0184 228.893 46.9816 228.163 47.2463L149.846 75.796C149.118 76.0632 148.524 76.6099 148.196 77.3165C147.867 78.023 147.831 78.8316 148.094 79.5651L167.299 132.816L167.626 133.726L187.785 142.912L193.451 145.494L194.37 145.912L218.36 156.846L219.289 156.507L235.024 150.772L258.759 142.119L261.957 140.953C262.686 140.686 263.28 140.139 263.609 139.433C263.938 138.727 263.975 137.918 263.712 137.184Z" fill="#00A3FF"/>
<path d="M230.873 92.8277C230.482 91.7497 229.682 90.8714 228.648 90.3854C227.615 89.8995 226.431 89.8455 225.358 90.2354L194.37 101.536L179.406 106.99C178.875 107.183 178.386 107.48 177.968 107.863C177.551 108.246 177.213 108.709 176.973 109.223C176.733 109.738 176.596 110.295 176.571 110.863C176.545 111.431 176.631 111.998 176.824 112.533C177.017 113.067 177.312 113.558 177.694 113.977C178.075 114.397 178.535 114.737 179.048 114.977C179.56 115.218 180.114 115.355 180.679 115.38C181.244 115.405 181.808 115.318 182.339 115.123L194.37 110.738L228.295 98.3722C229.367 97.9794 230.24 97.1752 230.724 96.1358C231.207 95.0964 231.261 93.9068 230.873 92.8277Z" fill="white"/>
<path d="M236.329 107.96C235.938 106.881 235.138 106.003 234.104 105.517C233.07 105.031 231.887 104.977 230.814 105.367L225.564 107.281L194.37 118.654L184.862 122.118C183.79 122.51 182.916 123.314 182.433 124.353C181.95 125.392 181.897 126.582 182.286 127.66C182.675 128.738 183.473 129.617 184.506 130.104C185.539 130.591 186.722 130.645 187.795 130.255L194.37 127.857L233.75 113.501C233.84 113.469 233.926 113.431 234.012 113.393C235.012 112.952 235.807 112.145 236.238 111.136C236.668 110.127 236.7 108.992 236.329 107.96Z" fill="white"/>
<path d="M241.844 123.25C241.454 122.172 240.655 121.294 239.621 120.808C238.588 120.322 237.405 120.268 236.333 120.658L221.61 126.026L210.212 130.182L194.37 135.955L190.377 137.412C189.454 137.75 188.674 138.395 188.165 139.24C187.656 140.084 187.449 141.078 187.579 142.057C187.618 142.348 187.687 142.635 187.785 142.912L193.451 145.494L194.37 145.158H194.377L223.124 134.678L239.265 128.795C240.338 128.403 241.212 127.598 241.696 126.559C242.179 125.519 242.232 124.329 241.844 123.25H241.844Z" fill="white"/>
<path d="M209.578 77.9522C209.187 76.8742 208.387 75.9959 207.354 75.51C206.32 75.024 205.137 74.97 204.063 75.3599L186.266 81.8458C185.194 82.2376 184.321 83.0414 183.838 84.0804C183.354 85.1195 183.301 86.3089 183.69 87.3872C184.079 88.4656 184.877 89.3447 185.91 89.8313C186.943 90.318 188.126 90.3724 189.199 89.9826L194.831 87.9303L198.559 86.5701L207 83.4933C208.072 83.1012 208.945 82.2976 209.429 81.2588C209.912 80.22 209.966 79.0308 209.578 77.9522Z" fill="white"/>
<path d="M280.601 86.5703H197.296C196.805 86.5708 196.321 86.6957 195.891 86.9334C195.46 87.1711 195.096 87.514 194.832 87.9305C194.529 88.402 194.369 88.9513 194.37 89.5122V145.913L218.36 156.846L221.74 158.386L227.079 160.819C227.392 160.961 227.731 161.035 228.074 161.035C228.417 161.035 228.756 160.961 229.069 160.819L234.408 158.386L251.117 150.772L266.69 143.673L283.527 136.004V89.5122C283.526 88.7321 283.218 87.9841 282.669 87.4325C282.121 86.8809 281.377 86.5708 280.601 86.5703Z" fill="#384CFF"/>
<path d="M263.389 126.026H214.507C213.396 126.027 212.328 126.46 211.527 127.235C210.726 128.009 210.255 129.066 210.211 130.183C210.206 130.239 210.203 130.296 210.204 130.352C210.206 131.499 210.66 132.598 211.466 133.409C212.273 134.22 213.367 134.677 214.507 134.678H263.389C264.53 134.678 265.624 134.223 266.431 133.411C267.238 132.6 267.692 131.5 267.692 130.352C267.692 129.205 267.238 128.104 266.431 127.293C265.624 126.482 264.53 126.026 263.389 126.026Z" fill="white"/>
<path d="M266.174 143.151C265.398 142.483 264.41 142.117 263.389 142.119H214.508C213.367 142.119 212.272 142.575 211.465 143.386C210.658 144.198 210.205 145.298 210.205 146.445C210.205 147.593 210.658 148.693 211.465 149.505C212.272 150.316 213.367 150.772 214.508 150.772H251.117L266.691 143.673C266.534 143.485 266.361 143.31 266.174 143.151Z" fill="white"/>
<path d="M221.74 158.386L227.079 160.819C227.392 160.961 227.731 161.035 228.074 161.035C228.417 161.035 228.756 160.961 229.069 160.819L234.408 158.386H221.74Z" fill="white"/>
<path d="M252.456 107.582C252.153 106.749 251.603 106.03 250.88 105.522C250.157 105.014 249.297 104.741 248.415 104.741H229.482C228.655 104.741 227.846 104.981 227.152 105.432C226.457 105.882 225.906 106.524 225.564 107.281C225.309 107.842 225.178 108.451 225.179 109.067C225.18 110.214 225.634 111.313 226.441 112.124C227.247 112.935 228.341 113.392 229.482 113.393H248.415C249.107 113.393 249.789 113.225 250.403 112.904C251.017 112.582 251.544 112.117 251.941 111.546C252.338 110.976 252.592 110.318 252.681 109.628C252.771 108.938 252.694 108.236 252.456 107.582Z" fill="white"/>
<path d="M249.447 150.772L232.738 158.386L228.783 160.189C228.56 160.29 228.318 160.342 228.074 160.342C227.829 160.342 227.588 160.29 227.365 160.189L223.41 158.386H221.74L227.079 160.819C227.392 160.961 227.731 161.035 228.074 161.035C228.417 161.035 228.756 160.961 229.069 160.819L234.408 158.386L251.117 150.772H249.447ZM249.447 150.772L232.738 158.386L228.783 160.189C228.56 160.29 228.318 160.342 228.074 160.342C227.829 160.342 227.588 160.29 227.365 160.189L223.41 158.386H221.74L227.079 160.819C227.392 160.961 227.731 161.035 228.074 161.035C228.417 161.035 228.756 160.961 229.069 160.819L234.408 158.386L251.117 150.772H249.447ZM249.447 150.772L232.738 158.386L228.783 160.189C228.56 160.29 228.318 160.342 228.074 160.342C227.829 160.342 227.588 160.29 227.365 160.189L223.41 158.386H221.74L227.079 160.819C227.392 160.961 227.731 161.035 228.074 161.035C228.417 161.035 228.756 160.961 229.069 160.819L234.408 158.386L251.117 150.772H249.447ZM305.527 126.964C305.4 126.837 305.26 126.723 305.11 126.624C304.772 126.404 304.384 126.273 303.982 126.243C303.58 126.214 303.177 126.286 302.811 126.455L266.174 143.151L249.447 150.772L232.738 158.386L228.783 160.189C228.56 160.29 228.318 160.342 228.074 160.342C227.829 160.342 227.588 160.29 227.365 160.189L223.41 158.386L219.289 156.507L194.377 145.158L194.37 145.155L187.578 142.057L167.299 132.816L153.337 126.455C153.195 126.389 153.046 126.339 152.893 126.306C152.556 126.221 152.204 126.214 151.864 126.285C151.319 126.397 150.83 126.695 150.478 127.127C150.126 127.56 149.934 128.101 149.933 128.66V215.576C149.933 216.218 150.187 216.834 150.639 217.288C151.091 217.742 151.703 217.998 152.342 217.998H303.805C304.444 217.998 305.057 217.742 305.509 217.288C305.96 216.834 306.214 216.218 306.215 215.576V128.66C306.216 128.025 305.969 127.416 305.527 126.964V126.964ZM305.527 215.576C305.526 216.035 305.345 216.475 305.022 216.799C304.7 217.124 304.262 217.306 303.805 217.306H152.342C151.886 217.306 151.448 217.124 151.125 216.799C150.803 216.475 150.621 216.035 150.621 215.576V128.66C150.621 128.37 150.693 128.086 150.831 127.832C150.969 127.578 151.168 127.363 151.409 127.206C151.579 127.096 151.767 127.017 151.964 126.971C152.022 126.958 152.08 126.949 152.139 126.943C152.206 126.933 152.274 126.928 152.342 126.929C152.587 126.929 152.829 126.982 153.051 127.085L167.626 133.726L187.785 142.912L193.451 145.494L194.37 145.913L218.36 156.846L221.74 158.386L227.079 160.819C227.392 160.961 227.731 161.035 228.074 161.035C228.417 161.035 228.756 160.961 229.069 160.819L234.408 158.386L251.117 150.772L266.69 143.673L303.096 127.085C303.358 126.965 303.646 126.914 303.933 126.935C304.219 126.956 304.496 127.049 304.738 127.206C304.766 127.222 304.792 127.241 304.817 127.261C304.845 127.279 304.87 127.3 304.893 127.324C305.091 127.485 305.251 127.688 305.361 127.919C305.47 128.151 305.527 128.403 305.527 128.66L305.527 215.576ZM249.447 150.772L232.738 158.386L228.783 160.189C228.56 160.29 228.318 160.342 228.074 160.342C227.829 160.342 227.588 160.29 227.365 160.189L223.41 158.386H221.74L227.079 160.819C227.392 160.961 227.731 161.035 228.074 161.035C228.417 161.035 228.756 160.961 229.069 160.819L234.408 158.386L251.117 150.772H249.447ZM249.447 150.772L232.738 158.386L228.783 160.189C228.56 160.29 228.318 160.342 228.074 160.342C227.829 160.342 227.588 160.29 227.365 160.189L223.41 158.386H221.74L227.079 160.819C227.392 160.961 227.731 161.035 228.074 161.035C228.417 161.035 228.756 160.961 229.069 160.819L234.408 158.386L251.117 150.772H249.447ZM193.451 145.494L194.37 145.913V145.158L193.451 145.494ZM249.447 150.772L232.738 158.386L228.783 160.189C228.56 160.29 228.318 160.342 228.074 160.342C227.829 160.342 227.588 160.29 227.365 160.189L223.41 158.386H221.74L227.079 160.819C227.392 160.961 227.731 161.035 228.074 161.035C228.417 161.035 228.756 160.961 229.069 160.819L234.408 158.386L251.117 150.772H249.447Z" fill="#3F3D56"/>
<path d="M103.13 107.075L103.126 107.082C102.324 106.711 101.411 106.664 100.576 106.951C99.7407 107.238 99.0472 107.837 98.6392 108.624C98.2312 109.411 98.14 110.326 98.3844 111.179C98.6289 112.032 99.1903 112.757 99.9523 113.205L99.9482 113.213L106.053 116.412L109.235 110.274C109.657 109.46 109.739 108.511 109.465 107.636C109.191 106.761 108.582 106.031 107.773 105.607C106.964 105.183 106.02 105.099 105.149 105.374C104.279 105.65 103.552 106.261 103.13 107.075Z" fill="#FC6565"/>
<path d="M146.067 151.475L146.064 151.486C144.906 151.234 143.696 151.439 142.684 152.059C141.673 152.68 140.937 153.667 140.63 154.818C140.323 155.969 140.468 157.194 141.035 158.24C141.602 159.286 142.548 160.073 143.676 160.437L143.673 160.448L152.598 162.856L154.992 153.882C155.149 153.293 155.19 152.678 155.111 152.073C155.032 151.468 154.835 150.885 154.532 150.357C153.919 149.289 152.91 148.511 151.727 148.191C150.543 147.872 149.282 148.039 148.221 148.654C147.159 149.27 146.384 150.285 146.067 151.475V151.475Z" fill="#FC6565"/>
<path d="M283.432 189.277L280.53 184.12C280.148 184.244 281.26 187.13 280.852 187.219C280.431 187.311 280.003 187.385 279.575 187.44C279.139 187.496 278.704 187.534 278.275 187.553C277.843 187.572 277.419 187.571 277.008 187.55C276.628 187.531 276.249 187.491 275.873 187.429C275.56 187.379 275.252 187.304 274.951 187.205C274.715 187.128 274.489 187.022 274.279 186.889C274.12 186.79 273.986 186.654 273.89 186.493L268.593 176.783C268.527 176.644 268.51 176.487 268.543 176.337C268.576 176.187 268.658 176.053 268.776 175.955C268.931 175.792 269.106 175.65 269.297 175.534C269.547 175.38 269.808 175.245 270.078 175.133C270.401 174.998 270.732 174.88 271.068 174.782C271.432 174.675 271.807 174.582 272.189 174.506C272.585 174.426 272.986 174.362 273.387 174.315C273.8 174.266 274.212 174.233 274.617 174.218L273.504 172.314C273.128 171.796 272.596 171.415 271.986 171.228C271.098 170.907 270.174 170.698 269.235 170.605C268.041 170.474 266.839 170.433 265.639 170.481C264.274 170.531 262.914 170.669 261.567 170.894L133.278 192.196C131.931 192.419 130.599 192.728 129.291 193.121C128.139 193.463 127.014 193.891 125.926 194.401C125.066 194.793 124.258 195.289 123.52 195.88C123.003 196.255 122.621 196.788 122.43 197.399L115.698 215.979C115.638 216.259 115.658 216.551 115.754 216.82C115.85 217.09 116.02 217.328 116.243 217.506C116.873 218.004 117.615 218.34 118.403 218.486C119.432 218.72 123.684 218.395 124.936 218.384C126.37 218.373 128.278 218.634 129.755 218.384L274.218 195.011C275.673 194.777 277.108 194.426 278.508 193.963C279.614 193.606 280.676 193.124 281.672 192.526C282.372 192.132 282.967 191.574 283.405 190.899C283.559 190.658 283.643 190.378 283.648 190.092C283.653 189.805 283.578 189.523 283.432 189.277Z" fill="#E4E4E4"/>
<path d="M281.365 186.508L279.974 184.129C279.591 184.254 279.193 184.361 278.786 184.45C278.365 184.542 277.937 184.616 277.508 184.671C277.072 184.727 276.638 184.765 276.209 184.784C275.776 184.803 275.352 184.802 274.942 184.781C274.562 184.762 274.182 184.722 273.807 184.66C273.494 184.61 273.186 184.535 272.885 184.436C272.648 184.359 272.422 184.253 272.213 184.12C272.053 184.021 271.92 183.885 271.824 183.724L266.526 174.014C266.461 173.875 266.443 173.718 266.476 173.568C266.51 173.418 266.592 173.283 266.71 173.186C266.864 173.023 267.039 172.881 267.231 172.765C267.48 172.611 267.741 172.476 268.012 172.364C268.335 172.229 268.665 172.111 269.001 172.013C269.365 171.906 269.741 171.813 270.122 171.737C270.519 171.657 270.92 171.593 271.321 171.546C271.734 171.496 272.145 171.464 272.55 171.449L271.438 169.545C271.062 169.027 270.529 168.646 269.92 168.459C269.032 168.138 268.108 167.929 267.169 167.836C265.975 167.705 264.773 167.664 263.573 167.712C262.208 167.762 260.848 167.9 259.5 168.125L131.212 189.427C129.864 189.649 128.532 189.959 127.224 190.352C126.073 190.694 124.948 191.122 123.86 191.632C123 192.024 122.192 192.52 121.453 193.111C120.936 193.486 120.554 194.019 120.364 194.63L116.385 213.902C116.326 214.182 116.345 214.474 116.442 214.744C116.538 215.013 116.707 215.251 116.93 215.429C117.561 215.927 118.302 216.263 119.091 216.409C120.226 216.654 121.385 216.767 122.545 216.748C124.02 216.733 125.49 216.602 126.944 216.353L272.151 192.242C273.607 192.008 275.042 191.657 276.442 191.194C277.548 190.837 278.609 190.355 279.606 189.757C280.306 189.363 280.901 188.805 281.339 188.13C281.493 187.889 281.577 187.609 281.582 187.323C281.586 187.036 281.511 186.754 281.365 186.508Z" fill="#1C78FF" fill-opacity="0.5"/>
<path d="M115.784 214.002L119.812 194.722C120.016 194.077 120.421 193.515 120.968 193.12C121.747 192.498 122.6 191.975 123.507 191.562C124.654 191.025 125.839 190.574 127.053 190.213C128.43 189.799 129.833 189.473 131.252 189.238L259.422 167.956C260.841 167.72 262.273 167.575 263.71 167.522C264.974 167.472 266.24 167.515 267.498 167.654C268.488 167.752 269.463 167.972 270.4 168.308C271.044 168.506 271.607 168.907 272.006 169.451L273.28 171.615L272.441 171.645C272.082 171.659 271.717 171.688 271.351 171.731C270.995 171.774 270.639 171.83 270.287 171.901C269.948 171.969 269.616 172.051 269.293 172.146C268.995 172.234 268.703 172.338 268.417 172.458C268.177 172.558 267.946 172.676 267.726 172.813C267.557 172.917 267.402 173.042 267.266 173.187C267.161 173.274 267.089 173.393 267.06 173.526C267.031 173.659 267.046 173.798 267.104 173.921L272.43 183.625C272.516 183.768 272.635 183.888 272.776 183.976C272.962 184.095 273.163 184.189 273.373 184.257C273.64 184.344 273.913 184.411 274.19 184.455C274.523 184.508 274.859 184.542 275.196 184.557C275.559 184.575 275.934 184.575 276.317 184.559C276.697 184.542 277.082 184.508 277.468 184.458C277.847 184.41 278.225 184.345 278.597 184.264C278.957 184.186 279.31 184.091 279.649 183.981L280.414 183.731L281.99 186.404C282.144 186.664 282.223 186.961 282.218 187.263C282.212 187.566 282.124 187.86 281.961 188.114C281.5 188.826 280.873 189.415 280.136 189.83C279.085 190.462 277.967 190.971 276.801 191.347C275.325 191.837 273.811 192.207 272.276 192.455L126.916 216.592C125.383 216.853 123.832 216.991 122.277 217.005C121.053 217.026 119.831 216.906 118.634 216.647C117.803 216.493 117.022 216.138 116.357 215.612C116.122 215.424 115.944 215.174 115.843 214.889C115.741 214.605 115.721 214.297 115.784 214.002ZM270.907 169.633C270.552 169.144 270.049 168.784 269.473 168.606C268.633 168.303 267.759 168.105 266.871 168.016C265.742 167.892 264.605 167.852 263.47 167.898C262.179 167.945 260.892 168.075 259.618 168.287L131.209 189.609C129.935 189.82 128.675 190.113 127.437 190.485C126.348 190.809 125.284 191.214 124.254 191.697C123.443 192.068 122.68 192.538 121.983 193.096C121.494 193.451 121.133 193.954 120.953 194.532L117.03 213.795C116.975 214.06 116.995 214.336 117.087 214.59C117.179 214.845 117.34 215.069 117.551 215.237C118.149 215.706 118.851 216.023 119.597 216.161C120.67 216.392 121.765 216.499 122.862 216.48C124.254 216.467 125.643 216.343 127.015 216.109L272.073 192.023C273.447 191.801 274.801 191.469 276.123 191.032C277.168 190.695 278.171 190.239 279.112 189.674C279.775 189.303 280.338 188.775 280.754 188.138C280.9 187.91 280.981 187.646 280.987 187.375C280.993 187.104 280.923 186.837 280.787 186.604L279.562 184.499C279.138 184.608 278.705 184.701 278.267 184.775C277.822 184.851 277.373 184.909 276.928 184.95C276.479 184.99 276.034 185.012 275.598 185.017C275.163 185.021 274.739 185.006 274.331 184.973C273.954 184.943 273.58 184.891 273.209 184.818C272.901 184.758 272.598 184.674 272.303 184.566C272.069 184.483 271.847 184.369 271.642 184.23C271.484 184.124 271.351 183.983 271.255 183.819L265.987 174.105C265.919 173.965 265.897 173.808 265.923 173.655C265.949 173.502 266.023 173.362 266.133 173.254C266.274 173.086 266.436 172.939 266.617 172.817C266.851 172.656 267.098 172.515 267.355 172.395C267.665 172.25 267.982 172.123 268.306 172.014C268.66 171.895 269.028 171.789 269.405 171.698C269.801 171.602 270.204 171.521 270.61 171.455C271.032 171.387 271.455 171.334 271.876 171.297L270.907 169.633Z" fill="#E4E4E4"/>
<path d="M234.447 174.989L241.503 193.878L196.273 201.388L193.312 181.819L234.447 174.989Z" fill="white"/>
<path d="M195.513 201.803L192.55 181.707L235.061 174.648L242.373 194.023L195.513 201.803ZM194.047 181.936L196.996 200.979L240.602 193.739L233.802 175.335L194.047 181.936Z" fill="#E4E4E4"/>
<path d="M240.492 193.796L233.715 175.421L196.676 201.071L240.492 193.796Z" fill="#F0F0F0"/>
<path d="M173.68 194.794L173.667 194.793C174.13 194.54 174.543 194.204 174.885 193.801C174.995 193.68 175.077 193.535 175.125 193.378C175.172 193.22 175.184 193.055 175.159 192.892C175.109 192.731 175.026 192.583 174.914 192.457C174.803 192.33 174.667 192.229 174.514 192.16C174.031 191.917 173.51 191.76 172.973 191.695C172.247 191.594 171.514 191.559 170.782 191.591C169.966 191.624 169.153 191.709 168.348 191.848C167.532 191.986 166.726 192.176 165.934 192.416C165.203 192.635 164.491 192.914 163.806 193.25L163.796 193.247L154.568 198.2L164.475 199.85C165.246 199.968 166.027 200.01 166.806 199.975C167.682 199.94 168.554 199.845 169.417 199.689C170.286 199.536 171.143 199.322 171.983 199.051C172.742 198.81 173.478 198.498 174.179 198.119C174.698 197.852 175.166 197.495 175.561 197.064C175.688 196.937 175.785 196.784 175.846 196.616C175.908 196.447 175.932 196.267 175.918 196.088C175.877 195.917 175.799 195.757 175.689 195.621C175.579 195.484 175.44 195.373 175.282 195.298C174.782 195.034 174.24 194.863 173.68 194.794Z" fill="#F0F0F0"/>
<path d="M166.244 182.389H166.235C166.192 181.503 165.812 180.667 165.173 180.055C164.533 179.443 163.684 179.102 162.802 179.102C161.919 179.102 161.07 179.443 160.431 180.055C159.792 180.667 159.411 181.503 159.368 182.389H159.359V189.311H166.244C167.157 189.311 168.033 188.947 168.678 188.298C169.324 187.649 169.686 186.768 169.686 185.85C169.686 184.933 169.324 184.052 168.678 183.403C168.033 182.754 167.157 182.389 166.244 182.389Z" fill="#FC6565"/>
<path d="M129.217 128.802L129.22 128.81C128.397 129.132 127.729 129.759 127.353 130.563C126.978 131.366 126.925 132.284 127.204 133.126C127.483 133.967 128.074 134.669 128.854 135.085C129.633 135.501 130.543 135.6 131.393 135.36L131.395 135.368L137.926 133.178L135.748 126.612C135.605 126.181 135.379 125.782 135.083 125.439C134.787 125.095 134.426 124.814 134.022 124.61C133.617 124.407 133.177 124.286 132.726 124.254C132.275 124.222 131.822 124.279 131.393 124.423C130.964 124.567 130.568 124.794 130.226 125.092C129.885 125.39 129.605 125.753 129.403 126.159C129.201 126.566 129.08 127.009 129.048 127.462C129.017 127.916 129.074 128.371 129.217 128.802Z" fill="#FC6565"/>
<path d="M165.055 218.641H0.753416C0.644916 218.64 0.54097 218.597 0.46436 218.519C0.38775 218.442 0.344727 218.338 0.344727 218.229C0.344727 218.119 0.38775 218.015 0.46436 217.938C0.54097 217.86 0.644916 217.817 0.753416 217.816H165.055C165.163 217.817 165.267 217.86 165.344 217.938C165.42 218.015 165.463 218.119 165.463 218.229C165.463 218.338 165.42 218.442 165.344 218.519C165.267 218.597 165.163 218.64 165.055 218.641Z" fill="#3F3D56"/>
</g>
<g clip-path="url(#clip1_79_7707)">
<path d="M57.8383 143.393C45.2422 130.926 39.9222 117.919 42.8579 106.77C46.6253 92.462 63.3621 82.5693 88.7768 79.6284L88.8707 80.4491C63.8098 83.3489 47.3283 93.0196 43.6521 106.981C40.7951 117.832 46.0379 130.554 58.4148 142.804L57.8383 143.393Z" fill="#384CFF" fill-opacity="0.4"/>
<path d="M179.369 187.647C163.648 187.647 146.565 185.298 129.596 180.782C108.612 175.196 89.3721 166.766 73.9561 156.401L74.4125 155.715C89.7544 166.029 108.909 174.421 129.806 179.983C148.691 185.01 167.717 187.339 184.821 186.724L184.851 187.55C183.044 187.615 181.217 187.647 179.369 187.647Z" fill="#384CFF" fill-opacity="0.4"/>
<path d="M215.435 182.453L215.172 181.671C229.232 176.891 238.026 169.192 240.603 159.405C243.879 146.962 236.762 132.524 220.562 118.749C204.28 104.904 180.801 93.4166 154.448 86.4025L154.658 85.604C181.126 92.6489 204.72 104.196 221.093 118.119C237.548 132.111 244.759 146.848 241.398 159.616C238.746 169.684 229.769 177.581 215.435 182.453Z" fill="#384CFF" fill-opacity="0.4"/>
<path d="M86.3305 187.993C55.4402 174.218 31.6368 156.348 19.3057 137.672L19.99 137.215C32.2359 155.761 55.9143 173.526 86.6635 187.238L86.3305 187.993Z" fill="#384CFF" fill-opacity="0.4"/>
<path d="M194.939 211.856C191.752 211.856 188.512 211.784 185.217 211.641L185.252 210.816C209.842 211.886 231.538 208.928 247.999 202.258L248.306 203.025C233.947 208.842 215.645 211.856 194.939 211.856Z" fill="#F0F0F0"/>
<path d="M177.016 80.3687C171.91 78.6974 166.659 77.1413 161.407 75.7434C131.186 67.6995 101.478 64.8435 75.4947 67.4857L75.4121 66.6638C101.493 64.0129 131.302 66.8758 161.617 74.9449C166.884 76.3468 172.15 77.9074 177.27 79.5835L177.016 80.3687Z" fill="#384CFF" fill-opacity="0.4"/>
<path d="M38.5327 144.632C25.9365 132.164 20.6165 119.158 23.5522 108.009C27.3196 93.7008 44.0565 83.8081 69.4712 80.8672L69.565 81.6879C44.5041 84.5877 28.0226 94.2583 24.3464 108.22C21.4894 119.071 26.7322 131.793 39.1091 144.043L38.5327 144.632Z" fill="#384CFF" fill-opacity="0.4"/>
<path d="M160.063 188.886C144.343 188.886 127.259 186.538 110.291 182.021C89.3065 176.436 70.0665 168.005 54.6504 157.641L55.1069 156.954C70.4488 167.268 89.6036 175.66 110.501 181.222C129.385 186.249 148.411 188.578 165.515 187.964L165.545 188.789C163.739 188.854 161.911 188.887 160.063 188.886Z" fill="#384CFF" fill-opacity="0.4"/>
<path d="M196.129 183.692L195.866 182.91C209.926 178.13 218.72 170.431 221.298 160.643C224.574 148.201 217.456 133.763 201.257 119.988C184.974 106.143 161.495 94.6554 135.143 87.6413L135.353 86.8428C161.82 93.8877 185.414 105.435 201.787 119.357C218.243 133.35 225.454 148.087 222.092 160.855C219.441 170.923 210.463 178.82 196.129 183.692Z" fill="#384CFF" fill-opacity="0.4"/>
<path d="M67.0249 189.231C36.1345 175.457 12.3312 157.586 0 138.911L0.684335 138.454C12.9303 157 36.6087 174.765 67.3578 188.476L67.0249 189.231Z" fill="#384CFF" fill-opacity="0.4"/>
<path d="M175.633 213.095C172.447 213.095 169.206 213.023 165.911 212.88L165.946 212.055C190.536 213.125 212.232 210.167 228.693 203.497L229 204.263C214.641 210.081 196.339 213.095 175.633 213.095Z" fill="#F0F0F0"/>
<path d="M157.71 81.608C152.605 79.9367 147.353 78.3805 142.101 76.9827C111.88 68.9388 82.1728 66.0828 56.1891 68.725L56.1064 67.9031C82.187 65.2521 111.996 68.115 142.312 76.1841C147.578 77.586 152.845 79.1466 157.965 80.8228L157.71 81.608Z" fill="#384CFF" fill-opacity="0.4"/>
<path d="M20.9447 123.812C20.1176 122.879 19.6473 121.681 19.6177 120.432C19.5881 119.182 20.0012 117.963 20.7832 116.992C20.9421 116.796 21.2525 117.035 21.0934 117.231C20.3636 118.134 19.9789 119.27 20.0088 120.433C20.0387 121.597 20.4812 122.711 21.2565 123.575C21.4248 123.763 21.112 123.999 20.9447 123.812H20.9447Z" fill="white"/>
<path d="M16.2758 133.525C18.8111 133.695 21.3168 132.897 23.2931 131.291C23.4888 131.132 23.7243 131.446 23.5288 131.605C21.4691 133.272 18.8599 134.097 16.2219 133.915C15.9705 133.897 16.0257 133.508 16.2758 133.525Z" fill="white"/>
<path d="M30.1848 117.124C30.43 117.552 30.7771 117.912 31.1949 118.172C31.6128 118.432 32.0882 118.583 32.5786 118.612C32.8301 118.627 32.7747 119.016 32.5248 119.002C31.9831 118.967 31.4582 118.799 30.996 118.513C30.5337 118.227 30.1482 117.831 29.873 117.361C29.8433 117.319 29.8308 117.267 29.8379 117.216C29.8449 117.165 29.8711 117.118 29.911 117.086C29.9525 117.055 30.0045 117.041 30.0558 117.048C30.107 117.055 30.1534 117.083 30.1848 117.124Z" fill="white"/>
<path d="M49.8403 141.985C43.1033 139.053 35.6186 138.329 28.4493 139.918C26.8999 140.232 25.4095 140.79 24.0328 141.571C22.7163 142.375 21.638 143.519 20.91 144.884C20.2058 146.143 19.6304 147.513 18.6341 148.578C18.116 149.116 17.4907 149.537 16.7993 149.815C16.1079 150.092 15.366 150.22 14.6221 150.189C12.7667 150.16 11.0322 149.463 9.35956 148.722C7.50241 147.899 5.58637 147.015 3.51006 147.094C3.25849 147.103 3.2584 146.71 3.50959 146.701C7.12201 146.563 10.0545 149.156 13.5287 149.7C15.1497 149.954 16.8568 149.719 18.0977 148.56C19.1827 147.548 19.7772 146.135 20.4793 144.854C21.1701 143.512 22.1772 142.361 23.4127 141.5C24.7453 140.651 26.2119 140.036 27.7497 139.682C31.199 138.829 34.7603 138.527 38.303 138.786C42.348 139.06 46.3166 140.027 50.0372 141.646C50.2675 141.746 50.0691 142.085 49.8403 141.985Z" fill="white"/>
<path d="M30.7275 139.27C30.6258 138.024 30.9678 136.783 31.6923 135.767C32.4168 134.752 33.4768 134.028 34.6829 133.726C34.9271 133.666 35.0318 134.045 34.7873 134.105C33.6636 134.384 32.6763 135.058 32.0036 136.005C31.3308 136.952 31.0169 138.11 31.1184 139.269C31.1402 139.521 30.7492 139.52 30.7275 139.27Z" fill="white"/>
<path d="M21.1837 144.199C23.1067 145.869 25.585 146.749 28.1245 146.663C28.3761 146.655 28.3762 147.048 28.1249 147.056C25.4821 147.14 22.9049 146.22 20.9077 144.477C20.7174 144.311 20.9945 144.034 21.1837 144.199Z" fill="white"/>
<path d="M42.1109 139.523C42.0504 140.013 42.1119 140.511 42.2899 140.971C42.4679 141.431 42.7569 141.84 43.1309 142.16C43.3231 142.324 43.0458 142.601 42.8548 142.439C42.4433 142.083 42.1247 141.631 41.9269 141.123C41.729 140.615 41.658 140.066 41.72 139.523C41.7216 139.472 41.7426 139.423 41.7789 139.386C41.8151 139.35 41.8639 139.328 41.9152 139.327C41.9669 139.327 42.0165 139.348 42.0532 139.384C42.0898 139.421 42.1106 139.471 42.1109 139.523H42.1109Z" fill="white"/>
<path d="M225.589 161.384C231.728 165.431 236.443 171.32 239.064 178.214C239.654 179.688 240.01 181.247 240.118 182.832C240.173 184.38 239.815 185.915 239.081 187.277C238.422 188.56 237.6 189.796 237.262 191.218C237.101 191.949 237.094 192.706 237.243 193.439C237.393 194.172 237.695 194.866 238.129 195.473C239.173 197.016 240.706 198.09 242.241 199.087C243.945 200.195 245.733 201.318 246.809 203.106C246.939 203.322 247.266 203.106 247.136 202.89C245.264 199.78 241.498 198.742 239.136 196.123C238.034 194.901 237.292 193.338 237.572 191.659C237.817 190.191 238.664 188.916 239.342 187.622C240.078 186.304 240.481 184.825 240.517 183.314C240.49 181.728 240.195 180.159 239.644 178.672C238.457 175.306 236.751 172.149 234.588 169.316C232.137 166.069 229.153 163.267 225.762 161.032C225.553 160.893 225.38 161.246 225.589 161.384Z" fill="white"/>
<path d="M238.349 175.944C239.44 175.345 240.284 174.375 240.729 173.209C241.175 172.042 241.193 170.754 240.781 169.575C240.697 169.337 240.325 169.457 240.409 169.695C240.795 170.793 240.777 171.992 240.36 173.078C239.943 174.164 239.154 175.063 238.135 175.615C237.914 175.736 238.129 176.063 238.349 175.944Z" fill="white"/>
<path d="M239.5 186.67C237.055 185.973 234.962 184.375 233.637 182.195C233.506 181.978 233.18 182.194 233.311 182.41C234.693 184.676 236.875 186.335 239.42 187.055C239.663 187.123 239.741 186.738 239.5 186.67Z" fill="white"/>
<path d="M231.883 166.523C231.509 166.843 231.061 167.065 230.581 167.168C230.101 167.272 229.602 167.254 229.13 167.116C228.889 167.044 228.811 167.429 229.051 167.5C229.573 167.65 230.123 167.67 230.654 167.557C231.185 167.443 231.681 167.201 232.097 166.851C232.139 166.821 232.168 166.777 232.179 166.726C232.189 166.676 232.18 166.623 232.153 166.579C232.125 166.536 232.08 166.505 232.029 166.495C231.979 166.484 231.926 166.494 231.883 166.523Z" fill="white"/>
<path d="M223.968 187.196C224.48 186.058 224.573 184.773 224.23 183.572C223.887 182.371 223.131 181.331 222.096 180.639C221.886 180.499 221.661 180.821 221.871 180.96C222.836 181.603 223.541 182.572 223.858 183.691C224.175 184.81 224.083 186.006 223.6 187.064C223.495 187.294 223.864 187.425 223.968 187.196H223.968Z" fill="white"/>
<path d="M213.163 183.588C213.056 184.071 212.832 184.518 212.51 184.892C212.189 185.265 211.78 185.553 211.321 185.728C211.085 185.817 211.253 186.172 211.488 186.083C211.994 185.887 212.445 185.569 212.801 185.158C213.158 184.746 213.408 184.253 213.531 183.721C213.547 183.672 213.543 183.619 213.521 183.572C213.499 183.525 213.461 183.489 213.413 183.47C213.364 183.452 213.31 183.455 213.264 183.477C213.217 183.5 213.181 183.54 213.163 183.588V183.588Z" fill="white"/>
<path d="M180.614 205.198C182.429 205.198 183.9 203.719 183.9 201.894C183.9 200.07 182.429 198.59 180.614 198.59C178.799 198.59 177.328 200.07 177.328 201.894C177.328 203.719 178.799 205.198 180.614 205.198Z" fill="#FD6584"/>
<path d="M192.254 148.926C194.069 148.926 195.54 147.446 195.54 145.622C195.54 143.797 194.069 142.318 192.254 142.318C190.439 142.318 188.968 143.797 188.968 145.622C188.968 147.446 190.439 148.926 192.254 148.926Z" fill="#E6E6E6"/>
<path d="M62.2461 180.715C62.2461 181.556 62.2737 182.397 62.3322 183.231C62.3942 184.227 62.5009 185.217 62.6454 186.2C63.1313 189.51 64.06 192.738 65.4062 195.798C65.475 195.95 65.5439 196.102 65.6127 196.254L65.716 196.483C65.7504 196.559 65.7883 196.635 65.8227 196.708C65.8709 196.808 65.9157 196.905 65.9639 197.002C66.0224 197.123 66.0809 197.244 66.1429 197.365C66.1497 197.379 66.1566 197.397 66.167 197.414C66.2186 197.518 66.2668 197.618 66.3219 197.722C66.332 197.745 66.3435 197.766 66.3563 197.788C66.4148 197.905 66.4768 198.026 66.5387 198.144C66.6076 198.269 66.673 198.397 66.7418 198.521C66.9071 198.829 67.0792 199.134 67.2547 199.439C67.3064 199.529 67.358 199.619 67.4131 199.709C67.4613 199.792 67.5095 199.875 67.5611 199.958C67.5955 200.013 67.63 200.072 67.6644 200.127C67.7195 200.221 67.7745 200.311 67.8331 200.404C67.9604 200.608 68.0912 200.813 68.2186 201.017H68.222C68.2806 201.11 68.3425 201.204 68.4045 201.294V201.297C68.5869 201.574 68.7763 201.851 68.9656 202.124C68.966 202.124 68.9665 202.124 68.9669 202.125C68.9673 202.125 68.9677 202.125 68.968 202.125C68.9684 202.126 68.9686 202.126 68.9688 202.126C68.969 202.127 68.969 202.127 68.969 202.128C69.1205 202.349 69.2788 202.564 69.4337 202.778V202.782C69.537 202.917 69.6368 203.055 69.7401 203.19C69.8227 203.301 69.9088 203.415 69.9948 203.526C70.0121 203.55 70.0327 203.571 70.0499 203.595V203.599C70.074 203.63 70.0981 203.658 70.1222 203.689C70.4871 204.159 70.8635 204.62 71.2513 205.07L71.3133 205.142C71.3339 205.167 71.358 205.191 71.3787 205.218C71.4131 205.256 71.4441 205.295 71.4785 205.333C71.5095 205.371 71.5439 205.409 71.5783 205.447C73.6 207.737 75.8924 209.769 78.4045 211.5C78.7384 211.732 79.0792 211.957 79.42 212.175C79.5061 212.23 79.5921 212.286 79.6782 212.338C79.7023 212.355 79.7298 212.372 79.7539 212.39C79.8021 212.417 79.8468 212.445 79.895 212.476C79.9398 212.504 79.9845 212.532 80.0327 212.559C80.2152 212.673 80.4011 212.784 80.587 212.895C80.6317 212.923 80.6799 212.95 80.7281 212.978C80.7728 213.002 80.821 213.03 80.8692 213.058C80.8692 213.061 80.8692 213.061 80.8727 213.061H80.8761V213.065H80.8795C81.1102 213.199 81.3443 213.331 81.5818 213.459C81.7092 213.528 81.84 213.601 81.9708 213.667C82.2668 213.829 82.5663 213.985 82.8658 214.134C82.9725 214.186 83.0827 214.238 83.1894 214.293C83.2789 214.335 83.3684 214.38 83.4579 214.421C83.4854 214.435 83.5095 214.445 83.5336 214.459C83.6093 214.494 83.6816 214.529 83.7574 214.563C83.84 214.601 83.9226 214.639 84.0018 214.677C84.0947 214.719 84.1842 214.76 84.2771 214.798C84.6214 214.954 84.9691 215.103 85.3167 215.245C86.5627 215.758 87.836 216.202 89.1308 216.574C89.1894 216.591 89.2513 216.609 89.3133 216.626C89.8675 216.782 90.4252 216.924 90.9863 217.052C91.9674 217.28 92.9576 217.467 93.957 217.612H93.9639C94.0844 217.63 94.2015 217.647 94.3219 217.664C94.3323 217.664 94.3426 217.668 94.3563 217.668C94.3563 217.671 94.3563 217.671 94.3598 217.668C94.4906 217.685 94.6249 217.702 94.7557 217.72C94.7646 217.722 94.7739 217.723 94.7832 217.723C94.9071 217.74 95.0345 217.754 95.1584 217.768C95.2927 217.782 95.4269 217.796 95.5612 217.81C95.6644 217.82 95.7677 217.83 95.871 217.841C95.8798 217.844 95.8892 217.845 95.8985 217.844C95.9915 217.851 96.0844 217.861 96.1774 217.868H96.1911C96.2703 217.875 96.3529 217.882 96.4321 217.889C97.3925 217.965 98.3564 218 99.334 218C100.391 218 101.441 217.958 102.477 217.868H102.487C102.711 217.848 102.931 217.827 103.152 217.806C103.21 217.799 103.265 217.796 103.324 217.789C103.334 217.789 103.348 217.785 103.358 217.785C103.375 217.782 103.393 217.782 103.413 217.778C103.422 217.779 103.432 217.778 103.441 217.775C103.516 217.768 103.592 217.758 103.671 217.751L103.93 217.72C104.016 217.709 104.102 217.695 104.188 217.685C104.208 217.681 104.226 217.681 104.246 217.678C104.308 217.671 104.37 217.661 104.432 217.65C104.463 217.647 104.494 217.643 104.522 217.64C104.584 217.63 104.642 217.623 104.704 217.612H104.707C106.596 217.339 108.461 216.916 110.284 216.349C110.38 216.318 110.477 216.29 110.573 216.259C110.577 216.259 110.58 216.256 110.584 216.256C110.611 216.245 110.642 216.238 110.67 216.228C110.928 216.145 111.183 216.058 111.437 215.968C111.788 215.851 112.136 215.723 112.484 215.591C112.577 215.553 112.67 215.518 112.763 215.48C112.952 215.408 113.138 215.331 113.324 215.255C113.64 215.127 113.957 214.992 114.27 214.854C114.563 214.722 114.852 214.591 115.141 214.452C115.148 214.449 115.158 214.449 115.165 214.442C115.231 214.411 115.296 214.38 115.358 214.349H115.362C116.947 213.584 118.476 212.706 119.936 211.722C120.405 211.407 120.866 211.081 121.32 210.746C121.685 210.472 122.043 210.195 122.401 209.912C124.167 208.499 125.802 206.928 127.286 205.218V205.215C127.393 205.097 127.492 204.976 127.596 204.855C127.613 204.838 127.627 204.82 127.64 204.807C127.706 204.727 127.768 204.651 127.833 204.575V204.571C127.919 204.471 128.005 204.367 128.088 204.263C128.109 204.239 128.126 204.218 128.143 204.197V204.194C128.212 204.111 128.277 204.028 128.346 203.941C128.381 203.9 128.411 203.858 128.446 203.817V203.813C128.649 203.557 128.845 203.301 129.041 203.038C129.093 202.969 129.145 202.896 129.2 202.823C129.448 202.488 129.689 202.145 129.923 201.802V201.799C130.012 201.671 130.098 201.539 130.188 201.411C130.274 201.28 130.36 201.148 130.446 201.017C130.532 200.878 130.621 200.743 130.708 200.605L130.718 200.584C130.804 200.453 130.89 200.314 130.973 200.179C131.038 200.068 131.103 199.961 131.169 199.854C131.21 199.781 131.255 199.709 131.296 199.632C131.312 199.609 131.327 199.585 131.341 199.56C131.437 199.39 131.534 199.221 131.63 199.051C131.744 198.854 131.854 198.653 131.964 198.452C132.005 198.369 132.05 198.286 132.095 198.203C132.112 198.175 132.126 198.148 132.14 198.12C132.191 198.023 132.243 197.923 132.291 197.822C132.343 197.725 132.394 197.625 132.446 197.525C132.494 197.428 132.546 197.327 132.594 197.227C132.632 197.151 132.666 197.075 132.704 196.999C132.707 196.992 132.71 196.987 132.714 196.981C132.732 196.943 132.749 196.909 132.763 196.874C132.767 196.869 132.77 196.863 132.773 196.857C132.811 196.781 132.845 196.701 132.883 196.625C132.931 196.524 132.976 196.421 133.024 196.32C133.055 196.251 133.09 196.178 133.121 196.106C133.165 196.005 133.214 195.905 133.255 195.801C133.303 195.697 133.348 195.593 133.393 195.486C133.405 195.46 133.417 195.434 133.427 195.407C133.451 195.358 133.468 195.31 133.489 195.261C133.544 195.133 133.599 195.002 133.651 194.874C133.713 194.728 133.771 194.579 133.826 194.434C133.881 194.299 133.933 194.161 133.985 194.022L134.005 193.974C134.807 191.85 135.416 189.657 135.823 187.422V187.419C136.052 186.143 136.217 184.856 136.315 183.563C136.319 183.49 136.325 183.421 136.329 183.352C136.391 182.476 136.418 181.597 136.418 180.715C136.418 180.323 136.411 179.936 136.401 179.548C136.161 171.441 133.286 163.637 128.215 157.329C128.105 157.19 127.995 157.052 127.881 156.913C127.768 156.775 127.651 156.64 127.537 156.505C123.764 152.062 119.004 148.572 113.643 146.318C108.282 144.063 102.469 143.106 96.6729 143.525C90.8767 143.944 85.2594 145.726 80.2738 148.728C75.2883 151.729 71.074 155.867 67.9708 160.807C67.8021 161.077 67.6334 161.35 67.4716 161.624C67.3064 161.901 67.148 162.177 66.9897 162.458C63.8711 168.031 62.2372 174.32 62.2461 180.715Z" fill="#F2F2F2" fill-opacity="0.5"/>
<path d="M97.86 156.326C103.958 157.899 110.208 158.806 116.5 159.031C117.451 159.083 118.405 159.077 119.356 159.011C121.445 158.835 123.234 158.175 125.227 157.814C126.185 157.641 127.253 157.514 128.217 157.328C127.994 157.05 127.767 156.775 127.536 156.504C125.457 156.68 123.344 157.259 121.239 157.527C117.661 157.985 113.652 157.474 110.94 156.215C109.624 155.605 108.616 154.842 107.304 154.228C107.126 154.136 106.933 154.077 106.734 154.053C106.356 154.041 105.982 154.139 105.657 154.333C103.457 155.45 100.263 156.358 97.2977 155.858C97.0767 156.032 97.4965 156.23 97.86 156.326Z" fill="white"/>
<path d="M84.7395 160.256C84.7124 160.251 84.6853 160.247 84.6582 160.243C84.7721 160.172 84.8794 160.09 84.9786 160L84.7395 160.256Z" fill="white"/>
<path d="M66.9902 162.46C68.2286 162.559 69.4734 162.633 70.7246 162.682C71.6761 162.733 72.6298 162.727 73.5805 162.662C75.6696 162.485 77.4592 161.825 79.4521 161.465C81.2787 161.135 83.4982 160.976 84.658 160.243C81.6606 159.721 78.5551 160.783 75.4643 161.178C72.9643 161.487 70.43 161.362 67.9724 160.806C67.6302 161.347 67.3028 161.899 66.9902 162.46Z" fill="white"/>
<path d="M81.9707 213.667C82.2667 213.829 82.5662 213.985 82.8657 214.134C82.9724 214.186 83.0826 214.238 83.1893 214.293C83.2788 214.335 83.3683 214.38 83.4578 214.421C83.4853 214.435 83.5094 214.445 83.5335 214.459C83.6093 214.494 83.6815 214.529 83.7573 214.563C83.8399 214.601 83.9225 214.639 84.0017 214.677C84.0946 214.719 84.1841 214.76 84.2771 214.799C84.6213 214.954 84.969 215.103 85.3167 215.245C86.5626 215.758 87.836 216.202 89.1308 216.574C89.1893 216.591 89.2513 216.609 89.3132 216.626C89.8675 216.782 90.4251 216.924 90.9862 217.052C91.9673 217.28 92.9575 217.467 93.957 217.612H93.9639C94.0843 217.63 94.2014 217.647 94.3219 217.664C94.3322 217.664 94.3425 217.668 94.3563 217.668C94.3563 217.671 94.3563 217.671 94.3597 217.668C94.4905 217.685 94.6248 217.702 94.7556 217.72C94.7645 217.722 94.7738 217.723 94.7831 217.723C94.9071 217.74 95.0344 217.754 95.1583 217.768C95.2926 217.782 95.4268 217.796 95.5611 217.81C95.6644 217.82 95.7676 217.83 95.8709 217.841C95.8798 217.844 95.8891 217.845 95.8984 217.844C95.9914 217.851 96.0843 217.861 96.1773 217.868H96.1911C96.2702 217.875 96.3528 217.882 96.432 217.889C97.3924 217.965 98.3563 218 99.3339 218C100.391 218 101.441 217.958 102.477 217.868H102.487C102.711 217.848 102.931 217.827 103.151 217.806C103.21 217.799 103.265 217.796 103.324 217.789C103.334 217.789 103.348 217.785 103.358 217.785C103.375 217.782 103.392 217.782 103.413 217.778C103.422 217.779 103.432 217.778 103.441 217.775C103.516 217.768 103.592 217.758 103.671 217.751L103.929 217.72C104.016 217.709 104.102 217.695 104.188 217.685C104.208 217.682 104.225 217.682 104.246 217.678C104.308 217.671 104.37 217.661 104.432 217.65C104.463 217.647 104.494 217.643 104.522 217.64C104.583 217.63 104.642 217.623 104.704 217.612H104.707C106.596 217.339 108.461 216.917 110.284 216.349C110.38 216.318 110.477 216.29 110.573 216.259C110.129 214.175 109.214 212.222 107.899 210.55C106.584 208.878 104.904 207.532 102.99 206.617C103.463 206.163 103.791 205.577 103.929 204.935C104.019 204.52 104.026 204.093 103.95 203.676C103.875 203.259 103.718 202.861 103.489 202.505C103.042 201.815 102.341 201.332 101.54 201.162L96.4389 200.089C95.6177 199.928 94.7664 200.1 94.0702 200.566C93.3741 201.033 92.8892 201.757 92.7212 202.581C92.6691 202.834 92.646 203.092 92.6523 203.35C87.7401 206.637 84.2048 210.047 81.9707 213.667Z" fill="#ABABAB"/>
<path d="M97.0347 198.063C102.905 198.063 107.663 193.279 107.663 187.377C107.663 181.476 102.905 176.691 97.0347 176.691C91.1648 176.691 86.4062 181.476 86.4062 187.377C86.4062 193.279 91.1648 198.063 97.0347 198.063Z" fill="#FFB8B8"/>
<path d="M90.4095 196.59C89.2761 195.812 88.1187 194.316 87.346 193.195C86.3221 191.721 85.6176 190.048 85.2781 188.283C84.9386 186.518 84.9717 184.701 85.3753 182.95C85.504 182.25 85.8204 181.598 86.2902 181.065C86.7908 180.567 87.6084 180.331 88.2194 180.683C88.0527 180.235 87.9792 179.756 88.0036 179.277C88.0279 178.799 88.1496 178.33 88.361 177.901C88.7905 177.043 89.4127 176.298 90.1784 175.725C91.6427 174.591 93.3851 173.877 95.2204 173.659C97.0558 173.44 98.9158 173.725 100.603 174.484C101.267 174.793 100.176 172.404 100.871 172.635C101.562 172.903 102.329 172.89 103.01 172.597C103.663 172.266 105.83 174.231 105.579 173.54C106.075 173.767 106.506 174.116 106.832 174.555C107.157 174.994 107.367 175.508 107.442 176.051C107.516 176.593 107.453 177.146 107.258 177.657C107.063 178.169 106.743 178.622 106.326 178.975C105.778 179.441 105.093 179.709 104.492 180.104C103.44 180.848 102.695 181.954 102.399 183.213C102.102 184.472 102.274 185.796 102.882 186.936C102.25 186.528 101.557 186.225 100.829 186.039C100.463 185.95 100.082 185.949 99.7166 186.037C99.3511 186.126 99.0118 186.301 98.7271 186.547C98.4891 186.821 98.3094 187.141 98.1989 187.487C98.0884 187.833 98.0494 188.198 98.0843 188.56C98.1082 189.285 98.2797 190 98.299 190.725C98.3555 192.853 99.4892 196.9 97.848 198.031C96.5528 198.924 91.957 197.653 90.4095 196.59Z" fill="#2F2E41"/>
<path d="M268.636 99.0349C268.636 99.8759 268.609 100.717 268.55 101.551C268.488 102.548 268.381 103.538 268.237 104.521C267.751 107.83 266.822 111.058 265.476 114.118C265.407 114.27 265.338 114.422 265.27 114.575L265.166 114.803C265.132 114.879 265.094 114.955 265.06 115.028C265.011 115.129 264.967 115.225 264.918 115.322C264.86 115.443 264.801 115.565 264.739 115.686C264.733 115.7 264.726 115.717 264.715 115.734C264.664 115.838 264.615 115.938 264.56 116.042C264.55 116.065 264.539 116.087 264.526 116.108C264.467 116.226 264.406 116.347 264.344 116.464C264.275 116.589 264.209 116.717 264.14 116.842C263.975 117.15 263.803 117.454 263.628 117.759C263.576 117.849 263.524 117.939 263.469 118.029C263.421 118.112 263.373 118.195 263.321 118.278C263.287 118.333 263.252 118.392 263.218 118.448C263.163 118.541 263.108 118.631 263.049 118.724C262.922 118.929 262.791 119.133 262.664 119.337H262.66C262.602 119.431 262.54 119.524 262.478 119.614V119.617C262.295 119.894 262.106 120.171 261.917 120.445L261.915 120.445L261.914 120.446L261.913 120.447L261.913 120.448C261.762 120.67 261.603 120.884 261.448 121.099V121.102C261.345 121.237 261.245 121.376 261.142 121.511C261.06 121.621 260.973 121.736 260.887 121.846C260.87 121.871 260.85 121.891 260.832 121.916V121.919C260.808 121.95 260.784 121.978 260.76 122.009C260.395 122.48 260.019 122.94 259.631 123.39L259.569 123.463C259.548 123.487 259.524 123.511 259.504 123.539C259.469 123.577 259.438 123.615 259.404 123.653C259.373 123.691 259.338 123.729 259.304 123.767C257.282 126.057 254.99 128.09 252.478 129.82C252.144 130.052 251.803 130.277 251.462 130.495C251.376 130.551 251.29 130.606 251.204 130.658C251.18 130.675 251.152 130.693 251.128 130.71C251.08 130.738 251.035 130.765 250.987 130.796C250.942 130.824 250.898 130.852 250.85 130.88C250.667 130.994 250.481 131.104 250.295 131.215C250.251 131.243 250.202 131.271 250.154 131.298C250.109 131.323 250.061 131.35 250.013 131.378C250.013 131.381 250.013 131.381 250.01 131.381H250.006V131.385H250.003C249.772 131.52 249.538 131.651 249.3 131.779C249.173 131.849 249.042 131.921 248.911 131.987C248.615 132.15 248.316 132.305 248.016 132.454C247.91 132.506 247.8 132.558 247.693 132.613C247.603 132.655 247.514 132.7 247.424 132.742C247.397 132.755 247.373 132.766 247.349 132.78C247.273 132.814 247.201 132.849 247.125 132.883C247.042 132.922 246.96 132.96 246.881 132.998C246.788 133.039 246.698 133.081 246.605 133.119C246.261 133.275 245.913 133.423 245.566 133.565C244.32 134.079 243.046 134.522 241.751 134.894C241.693 134.912 241.631 134.929 241.569 134.946C241.015 135.102 240.457 135.244 239.896 135.372C238.915 135.6 237.925 135.787 236.925 135.933H236.918C236.798 135.95 236.681 135.967 236.56 135.984C236.55 135.984 236.54 135.988 236.526 135.988C236.526 135.991 236.526 135.991 236.522 135.988C236.392 136.005 236.257 136.023 236.127 136.04C236.118 136.043 236.108 136.044 236.099 136.043C235.975 136.061 235.848 136.074 235.724 136.088C235.59 136.102 235.455 136.116 235.321 136.13C235.218 136.14 235.115 136.151 235.011 136.161C235.002 136.164 234.993 136.165 234.984 136.164C234.891 136.171 234.798 136.182 234.705 136.189H234.691C234.612 136.196 234.529 136.203 234.45 136.209C233.49 136.286 232.526 136.32 231.548 136.32C230.491 136.32 229.442 136.279 228.405 136.189H228.395C228.171 136.168 227.951 136.147 227.731 136.126C227.672 136.119 227.617 136.116 227.559 136.109C227.548 136.109 227.534 136.106 227.524 136.106C227.507 136.102 227.49 136.102 227.469 136.099C227.46 136.099 227.45 136.098 227.442 136.095C227.366 136.088 227.29 136.078 227.211 136.071L226.953 136.04C226.867 136.029 226.781 136.016 226.695 136.005C226.674 136.002 226.657 136.002 226.636 135.998C226.574 135.991 226.512 135.981 226.45 135.971C226.419 135.967 226.388 135.964 226.361 135.96C226.299 135.95 226.24 135.943 226.178 135.933H226.175C224.286 135.659 222.421 135.237 220.598 134.669C220.502 134.638 220.405 134.61 220.309 134.579C220.306 134.579 220.302 134.576 220.299 134.576C220.271 134.565 220.24 134.559 220.213 134.548C219.954 134.465 219.7 134.379 219.445 134.289C219.094 134.171 218.746 134.043 218.399 133.911C218.306 133.873 218.213 133.839 218.12 133.801C217.93 133.728 217.744 133.652 217.559 133.576C217.242 133.448 216.925 133.313 216.612 133.174C216.319 133.043 216.03 132.911 215.741 132.773C215.734 132.769 215.724 132.769 215.717 132.762C215.652 132.731 215.586 132.7 215.524 132.669H215.521C213.935 131.904 212.407 131.026 210.946 130.042C210.478 129.727 210.016 129.402 209.562 129.066C209.197 128.793 208.839 128.516 208.481 128.232C206.715 126.819 205.08 125.249 203.596 123.539V123.535C203.49 123.418 203.39 123.296 203.287 123.175C203.269 123.158 203.256 123.141 203.242 123.127C203.176 123.047 203.114 122.971 203.049 122.895V122.892C202.963 122.791 202.877 122.687 202.794 122.584C202.774 122.559 202.756 122.539 202.739 122.518V122.514C202.67 122.431 202.605 122.348 202.536 122.262C202.502 122.22 202.471 122.179 202.436 122.137V122.134C202.233 121.877 202.037 121.621 201.841 121.358C201.789 121.289 201.738 121.216 201.682 121.144C201.435 120.808 201.194 120.465 200.96 120.123V120.119C200.87 119.991 200.784 119.86 200.695 119.732C200.608 119.6 200.522 119.469 200.436 119.337C200.35 119.199 200.261 119.064 200.175 118.925L200.164 118.904C200.078 118.773 199.992 118.635 199.91 118.5C199.844 118.389 199.779 118.281 199.713 118.174C199.672 118.102 199.627 118.029 199.586 117.953C199.57 117.929 199.555 117.905 199.541 117.88C199.445 117.71 199.349 117.541 199.252 117.371C199.139 117.174 199.028 116.973 198.918 116.773C198.877 116.689 198.832 116.606 198.787 116.523C198.77 116.496 198.756 116.468 198.743 116.44C198.691 116.343 198.639 116.243 198.591 116.143C198.54 116.046 198.488 115.945 198.436 115.845C198.388 115.748 198.337 115.648 198.288 115.547C198.25 115.471 198.216 115.395 198.178 115.319C198.175 115.313 198.172 115.307 198.168 115.302C198.151 115.264 198.133 115.229 198.12 115.194C198.115 115.189 198.112 115.183 198.109 115.177C198.071 115.101 198.037 115.021 197.999 114.945C197.951 114.845 197.906 114.741 197.858 114.641C197.827 114.571 197.793 114.499 197.762 114.426C197.717 114.326 197.669 114.225 197.627 114.121C197.579 114.018 197.534 113.914 197.49 113.806C197.477 113.781 197.465 113.754 197.455 113.727C197.431 113.678 197.414 113.63 197.393 113.581C197.338 113.453 197.283 113.322 197.232 113.194C197.17 113.048 197.111 112.9 197.056 112.754C197.001 112.619 196.949 112.481 196.898 112.342L196.877 112.294C196.075 110.17 195.467 107.977 195.059 105.742V105.739C194.83 104.463 194.665 103.176 194.567 101.883C194.564 101.811 194.557 101.741 194.553 101.672C194.491 100.797 194.464 99.9174 194.464 99.0349C194.464 98.6438 194.471 98.2561 194.481 97.8685C194.721 89.7616 197.597 81.957 202.667 75.6489C202.777 75.5104 202.887 75.372 203.001 75.2336C203.114 75.0951 203.232 74.9601 203.345 74.8252C207.119 70.382 211.878 66.8924 217.239 64.6379C222.6 62.3833 228.413 61.4267 234.209 61.8454C240.006 62.264 245.623 64.046 250.608 67.0479C255.594 70.0497 259.808 74.1873 262.911 79.1272C263.08 79.3971 263.249 79.6706 263.411 79.944C263.576 80.2209 263.734 80.4978 263.893 80.7781C267.011 86.3514 268.645 92.6401 268.636 99.0349Z" fill="#F2F2F2" fill-opacity="0.5"/>
<path d="M233.022 74.6464C226.924 76.2197 220.674 77.1266 214.382 77.3513C213.431 77.4034 212.477 77.3969 211.527 77.3317C209.437 77.1551 207.648 76.4949 205.655 76.1341C204.697 75.9612 203.63 75.8347 202.665 75.6478C202.888 75.3698 203.115 75.0952 203.346 74.824C205.426 75.0007 207.538 75.579 209.643 75.8477C213.221 76.3052 217.23 75.7947 219.942 74.5357C221.258 73.9248 222.267 73.1624 223.578 72.5487C223.756 72.4566 223.95 72.3971 224.149 72.373C224.527 72.3616 224.9 72.459 225.225 72.6538C227.425 73.7705 230.62 74.678 233.584 74.1787C233.806 74.3526 233.386 74.5506 233.022 74.6464Z" fill="white"/>
<path d="M246.142 78.5766C246.169 78.5716 246.197 78.5677 246.224 78.563C246.11 78.4921 246.003 78.4108 245.903 78.3203L246.142 78.5766Z" fill="white"/>
<path d="M263.891 80.7799C262.653 80.8793 261.408 80.9534 260.157 81.0021C259.205 81.0537 258.252 81.0472 257.301 80.9826C255.212 80.805 253.422 80.1457 251.429 79.7849C249.603 79.4548 247.383 79.2959 246.224 78.5631C249.221 78.0415 252.327 79.1034 255.417 79.4986C257.917 79.8076 260.452 79.6818 262.909 79.1266C263.251 79.6678 263.579 80.2189 263.891 80.7799Z" fill="white"/>
<path d="M227.367 115.351C233.519 115.351 238.506 110.225 238.506 103.902C238.506 97.579 233.519 92.4531 227.367 92.4531C221.216 92.4531 216.229 97.579 216.229 103.902C216.229 110.225 221.216 115.351 227.367 115.351Z" fill="#FFB6B6"/>
<path d="M248.911 131.987C248.615 132.15 248.316 132.305 248.016 132.454C247.909 132.506 247.799 132.558 247.693 132.614C247.603 132.655 247.513 132.7 247.424 132.742C247.396 132.755 247.372 132.766 247.348 132.78C247.273 132.814 247.2 132.849 247.125 132.883C247.042 132.922 246.959 132.96 246.88 132.998C246.787 133.039 246.698 133.081 246.605 133.119C246.26 133.275 245.913 133.423 245.565 133.565C244.319 134.079 243.046 134.522 241.751 134.894C241.692 134.912 241.631 134.929 241.569 134.946C241.014 135.102 240.457 135.244 239.896 135.372C238.915 135.6 237.924 135.787 236.925 135.933H236.918C236.797 135.95 236.68 135.967 236.56 135.985C236.55 135.985 236.539 135.988 236.525 135.988C236.525 135.991 236.525 135.991 236.522 135.988C236.391 136.005 236.257 136.023 236.126 136.04C236.117 136.043 236.108 136.044 236.099 136.043C235.975 136.061 235.847 136.075 235.723 136.088C235.589 136.102 235.455 136.116 235.321 136.13C235.217 136.14 235.114 136.151 235.011 136.161C235.002 136.164 234.993 136.165 234.983 136.165C234.89 136.171 234.797 136.182 234.705 136.189H234.691C234.612 136.196 234.529 136.203 234.45 136.21C233.489 136.286 232.526 136.32 231.548 136.32C230.491 136.32 229.441 136.279 228.405 136.189H228.395C228.171 136.168 227.951 136.147 227.73 136.126C227.672 136.12 227.617 136.116 227.558 136.109C227.548 136.109 227.534 136.106 227.524 136.106C227.507 136.102 227.489 136.102 227.469 136.099C227.459 136.099 227.45 136.098 227.441 136.095C227.365 136.088 227.29 136.078 227.211 136.071L226.952 136.04C226.866 136.03 226.78 136.016 226.694 136.005C226.673 136.002 226.656 136.002 226.636 135.998C226.574 135.991 226.512 135.981 226.45 135.971C226.419 135.967 226.388 135.964 226.36 135.96C226.298 135.95 226.24 135.943 226.178 135.933H226.174C224.285 135.659 222.421 135.237 220.598 134.669C220.501 134.638 220.405 134.611 220.309 134.579C220.753 132.495 221.668 130.542 222.983 128.87C224.298 127.198 225.978 125.852 227.892 124.937C227.419 124.483 227.091 123.898 226.952 123.255C226.863 122.841 226.856 122.413 226.931 121.996C227.007 121.579 227.164 121.181 227.393 120.825C227.84 120.136 228.54 119.653 229.341 119.482L234.443 118.41C235.264 118.249 236.115 118.42 236.812 118.887C237.508 119.353 237.993 120.077 238.161 120.902C238.213 121.154 238.236 121.412 238.229 121.67C243.142 124.958 246.677 128.367 248.911 131.987Z" fill="#ABABAB"/>
<path d="M257.173 98.9362C255.28 96.7163 254.38 93.771 252.866 91.2501C251.352 88.7292 248.718 86.473 245.936 87.0597C244.018 87.4641 242.535 89.1659 241.785 91.0633C241.034 92.9606 240.894 95.0529 240.762 97.1027C240.808 92.8903 238.048 88.8066 234.246 87.4625C230.444 86.1184 225.893 87.6177 223.504 91.0019C222.461 90.0302 221.1 89.477 219.679 89.447C218.258 89.417 216.875 89.9123 215.793 90.8391C213.655 92.7595 213.182 96.4147 214.754 98.8643C216.326 101.314 219.73 102.226 222.227 100.868L223.11 101.684C222.613 103.432 223.577 105.497 225.198 106.155C226.511 106.689 228.366 106.6 228.858 107.986C229.202 108.955 228.559 109.989 227.876 110.733C227.193 111.477 226.382 112.246 226.3 113.276C226.176 114.83 227.774 115.919 229.226 116.247C232.727 117.037 236.612 115.407 238.63 112.3C238.669 112.24 238.711 112.18 238.757 112.12C239.889 110.665 240.714 108.992 241.182 107.205C241.65 105.418 241.75 103.553 241.477 101.726C241.363 101.008 241.478 100.474 241.97 100.304C244.098 99.5686 250.061 101.111 251.865 102.506C253.67 103.9 255.115 105.745 256.853 107.229C258.592 108.713 260.807 109.858 263.014 109.454C264.782 109.13 266.285 107.84 267.297 106.284C268.308 104.727 268.89 102.913 269.412 101.11C265.503 103.381 260.153 102.43 257.173 98.9362Z" fill="#2F2E41"/>
<path d="M28.5118 75.8464C28.5118 76.6874 28.5393 77.5284 28.5978 78.3625C28.6598 79.3593 28.7665 80.3491 28.9111 81.3321C29.397 84.6416 30.3256 87.87 31.6718 90.9294C31.7407 91.0817 31.8095 91.234 31.8784 91.3863L31.9816 91.6147C32.0161 91.6908 32.0539 91.767 32.0883 91.8397C32.1365 91.94 32.1813 92.0369 32.2295 92.1338C32.288 92.255 32.3465 92.3761 32.4085 92.4972C32.4154 92.5111 32.4223 92.5284 32.4326 92.5457C32.4842 92.6495 32.5324 92.7499 32.5875 92.8537C32.5976 92.8763 32.6091 92.8983 32.6219 92.9195C32.6804 93.0372 32.7424 93.1583 32.8044 93.276C32.8732 93.4006 32.9386 93.5286 33.0075 93.6532C33.1727 93.9612 33.3448 94.2658 33.5204 94.5704C33.572 94.6604 33.6236 94.7504 33.6787 94.8403C33.7269 94.9234 33.7751 95.0065 33.8267 95.0895C33.8612 95.1449 33.8956 95.2037 33.93 95.2591C33.9851 95.3526 34.0402 95.4426 34.0987 95.536C34.226 95.7402 34.3569 95.9444 34.4842 96.1486H34.4877C34.5462 96.2421 34.6081 96.3355 34.6701 96.4255V96.4289C34.8526 96.7058 35.0419 96.9827 35.2312 97.2561L35.2325 97.2563L35.2337 97.2571L35.2344 97.2582L35.2347 97.2596C35.3861 97.4811 35.5445 97.6956 35.6994 97.9102V97.9137C35.8026 98.0487 35.9025 98.1871 36.0057 98.3221C36.0884 98.4328 36.1744 98.5471 36.2605 98.6578C36.2777 98.682 36.2983 98.7028 36.3155 98.727V98.7305C36.3396 98.7616 36.3637 98.7893 36.3878 98.8205C36.7527 99.2912 37.1291 99.7515 37.5169 100.201L37.5789 100.274C37.5995 100.298 37.6236 100.323 37.6443 100.35C37.6787 100.388 37.7097 100.426 37.7441 100.464C37.7751 100.503 37.8095 100.541 37.844 100.579C39.8657 102.868 42.158 104.901 44.6701 106.632C45.004 106.864 45.3448 107.089 45.6856 107.307C45.7717 107.362 45.8577 107.418 45.9438 107.47C45.9679 107.487 45.9954 107.504 46.0195 107.521C46.0677 107.549 46.1125 107.577 46.1607 107.608C46.2054 107.636 46.2502 107.663 46.2984 107.691C46.4808 107.805 46.6667 107.916 46.8526 108.027C46.8973 108.054 46.9455 108.082 46.9937 108.11C47.0385 108.134 47.0866 108.162 47.1348 108.189C47.1348 108.193 47.1348 108.193 47.1383 108.193H47.1417V108.196H47.1452C47.3758 108.331 47.6099 108.463 47.8474 108.591C47.9748 108.66 48.1056 108.733 48.2364 108.799C48.5324 108.961 48.8319 109.117 49.1314 109.266C49.2381 109.318 49.3483 109.37 49.455 109.425C49.5445 109.467 49.634 109.512 49.7235 109.553C49.751 109.567 49.7751 109.577 49.7992 109.591C49.875 109.626 49.9472 109.66 50.023 109.695C50.1056 109.733 50.1882 109.771 50.2674 109.809C50.3603 109.851 50.4498 109.892 50.5428 109.93C50.887 110.086 51.2347 110.235 51.5824 110.377C52.8283 110.89 54.1017 111.334 55.3965 111.706C55.455 111.723 55.517 111.74 55.5789 111.758C56.1332 111.913 56.6908 112.055 57.2519 112.183C58.233 112.412 59.2232 112.599 60.2227 112.744H60.2296C60.35 112.761 60.4671 112.779 60.5876 112.796C60.5979 112.796 60.6082 112.799 60.622 112.799C60.622 112.803 60.622 112.803 60.6254 112.799C60.7562 112.817 60.8905 112.834 61.0213 112.851C61.0302 112.854 61.0395 112.855 61.0488 112.855C61.1728 112.872 61.3001 112.886 61.424 112.9C61.5583 112.914 61.6925 112.928 61.8268 112.941C61.9301 112.952 62.0333 112.962 62.1366 112.973C62.1455 112.976 62.1548 112.977 62.1641 112.976C62.2571 112.983 62.35 112.993 62.443 113H62.4567C62.5359 113.007 62.6185 113.014 62.6977 113.021C63.6581 113.097 64.622 113.132 65.5996 113.132C66.6564 113.132 67.7063 113.09 68.7425 113H68.7528C68.9765 112.979 69.1969 112.959 69.4172 112.938C69.4757 112.931 69.5308 112.928 69.5893 112.921C69.5996 112.921 69.6134 112.917 69.6237 112.917C69.6409 112.914 69.6581 112.914 69.6788 112.91C69.6881 112.911 69.6974 112.909 69.7063 112.907C69.7821 112.9 69.8578 112.889 69.937 112.883L70.1951 112.851C70.2812 112.841 70.3673 112.827 70.4533 112.817C70.474 112.813 70.4912 112.813 70.5118 112.81C70.5738 112.803 70.6358 112.793 70.6977 112.782C70.7287 112.779 70.7597 112.775 70.7872 112.772C70.8492 112.761 70.9077 112.754 70.9697 112.744H70.9731C72.862 112.471 74.7267 112.048 76.5497 111.481C76.6461 111.45 76.7425 111.422 76.8389 111.391C76.8423 111.391 76.8458 111.387 76.8492 111.387C76.8767 111.377 76.9077 111.37 76.9353 111.36C77.1934 111.277 77.4482 111.19 77.7029 111.1C78.054 110.982 78.4017 110.854 78.7494 110.723C78.8423 110.685 78.9353 110.65 79.0282 110.612C79.2175 110.539 79.4034 110.463 79.5893 110.387C79.906 110.259 80.2227 110.124 80.5359 109.986C80.8285 109.854 81.1177 109.723 81.4069 109.584C81.4137 109.581 81.4241 109.581 81.431 109.574C81.4964 109.543 81.5618 109.512 81.6237 109.48H81.6272C83.2124 108.715 84.7413 107.838 86.202 106.853C86.6702 106.539 87.1315 106.213 87.5859 105.877C87.9508 105.604 88.3088 105.327 88.6668 105.043C90.4329 103.631 92.0679 102.06 93.5515 100.35V100.347C93.6582 100.229 93.758 100.108 93.8613 99.9869C93.8785 99.9695 93.8923 99.9522 93.906 99.9384C93.9714 99.8588 94.0334 99.7827 94.0988 99.7065V99.703C94.1849 99.6027 94.2709 99.4989 94.3535 99.395C94.3742 99.3708 94.3914 99.35 94.4086 99.3293V99.3258C94.4775 99.2427 94.5428 99.1597 94.6117 99.0732C94.6461 99.0316 94.6771 98.9901 94.7115 98.9486V98.9451C94.9146 98.689 95.1108 98.4329 95.3071 98.1698C95.3587 98.1006 95.4103 98.0279 95.4654 97.9552C95.7133 97.6195 95.9542 97.2769 96.1883 96.9342V96.9308C96.2778 96.8027 96.3639 96.6712 96.4534 96.5432C96.5394 96.4116 96.6255 96.2801 96.7115 96.1486C96.7976 96.0102 96.8871 95.8752 96.9732 95.7368L96.9835 95.716C97.0695 95.5845 97.1556 95.446 97.2382 95.311C97.3036 95.2003 97.369 95.093 97.4344 94.9857C97.4757 94.913 97.5205 94.8404 97.5618 94.7642C97.5779 94.7408 97.5929 94.7165 97.6065 94.6915C97.7029 94.5219 97.7993 94.3524 97.8957 94.1828C98.0093 93.9855 98.1195 93.7848 98.2296 93.584C98.2709 93.501 98.3157 93.4179 98.3604 93.3348C98.3776 93.3071 98.3914 93.2795 98.4052 93.2518C98.4568 93.1549 98.5084 93.0545 98.5566 92.9541C98.6083 92.8572 98.6599 92.7568 98.7115 92.6565C98.7597 92.5596 98.8114 92.4592 98.8596 92.3588C98.8974 92.2827 98.9319 92.2065 98.9697 92.1304C98.9724 92.1242 98.9759 92.1184 98.98 92.1131C98.9973 92.075 99.0145 92.0404 99.0282 92.0058C99.0324 92.0005 99.0359 91.9947 99.0386 91.9885C99.0764 91.9124 99.1109 91.8328 99.1487 91.7566C99.1969 91.6562 99.2417 91.5524 99.2899 91.452C99.3208 91.3828 99.3553 91.3101 99.3862 91.2375C99.431 91.1371 99.4792 91.0367 99.5205 90.9329C99.5687 90.8291 99.6134 90.7252 99.6582 90.6179C99.6711 90.5921 99.6826 90.5655 99.6926 90.5383C99.7167 90.4899 99.7339 90.4414 99.7546 90.393C99.8097 90.2649 99.8647 90.1334 99.9164 90.0053C99.9783 89.86 100.037 89.7112 100.092 89.5658C100.147 89.4308 100.199 89.2924 100.25 89.1539L100.271 89.1055C101.073 86.9815 101.681 84.7886 102.088 82.5538V82.5503C102.318 81.2745 102.482 79.9876 102.581 78.6948C102.584 78.6221 102.591 78.5529 102.595 78.4837C102.656 77.608 102.684 76.7289 102.684 75.8464C102.684 75.4553 102.677 75.0677 102.667 74.68C102.427 66.5731 99.5512 58.7686 94.4809 52.4604C94.3707 52.322 94.2606 52.1835 94.147 52.0451C94.0334 51.9066 93.9164 51.7717 93.8028 51.6367C90.0291 47.1935 85.2699 43.704 79.9089 41.4494C74.5478 39.1948 68.7348 38.2383 62.9385 38.6569C57.1423 39.0755 51.525 40.8576 46.5394 43.8594C41.5539 46.8612 37.3396 50.9989 34.2364 55.9387C34.0677 56.2087 33.899 56.4821 33.7373 56.7555C33.572 57.0324 33.4137 57.3093 33.2553 57.5896C30.1368 63.1629 28.5028 69.4516 28.5118 75.8464Z" fill="#F2F2F2" fill-opacity="0.5"/>
<path d="M64.1256 51.4579C70.2239 53.0312 76.4734 53.9381 82.7653 54.1628C83.7168 54.2149 84.6705 54.2084 85.6211 54.1433C87.7103 53.9666 89.4998 53.3064 91.4928 52.9456C92.4509 52.7727 93.5181 52.6462 94.4827 52.4593C94.2599 52.1813 94.033 51.9067 93.8021 51.6355C91.7221 51.8122 89.6099 52.3905 87.505 52.6593C83.9269 53.1167 79.9178 52.6063 77.2053 51.3473C75.8893 50.7364 74.8812 49.9739 73.5698 49.3602C73.3915 49.2682 73.1983 49.2087 72.9992 49.1845C72.6211 49.1731 72.2476 49.2705 71.9227 49.4653C69.7226 50.582 66.5283 51.4895 63.5633 50.9902C63.3423 51.1641 63.7622 51.3621 64.1256 51.4579Z" fill="white"/>
<path d="M51.0051 55.3876C50.9781 55.3827 50.9509 55.3788 50.9238 55.3741C51.0377 55.3031 51.145 55.2219 51.2443 55.1313L51.0051 55.3876Z" fill="white"/>
<path d="M33.2559 57.5909C34.4942 57.6904 35.739 57.7645 36.9903 57.8131C37.9417 57.8648 38.8954 57.8583 39.8461 57.7936C41.9353 57.616 43.7248 56.9568 45.7178 56.596C47.5443 56.2659 49.7639 56.1069 50.9236 55.3742C47.9262 54.8525 44.8207 55.9144 41.73 56.3096C39.2299 56.6187 36.6956 56.4929 34.238 55.9377C33.8958 56.4788 33.5684 57.0299 33.2559 57.5909Z" fill="white"/>
<path d="M48.2363 108.799C48.5324 108.961 48.8319 109.117 49.1313 109.266C49.2381 109.318 49.3482 109.37 49.4549 109.425C49.5444 109.467 49.6339 109.512 49.7234 109.553C49.751 109.567 49.7751 109.577 49.7992 109.591C49.8749 109.626 49.9472 109.66 50.0229 109.695C50.1055 109.733 50.1881 109.771 50.2673 109.809C50.3603 109.851 50.4498 109.892 50.5427 109.93C50.8869 110.086 51.2346 110.235 51.5823 110.377C52.8283 110.89 54.1016 111.334 55.3964 111.706C55.4549 111.723 55.5169 111.74 55.5789 111.758C56.1331 111.914 56.6908 112.055 57.2519 112.183C58.2329 112.412 59.2232 112.599 60.2226 112.744H60.2295C60.35 112.761 60.467 112.779 60.5875 112.796C60.5978 112.796 60.6081 112.8 60.6219 112.8C60.6219 112.803 60.6219 112.803 60.6253 112.8C60.7562 112.817 60.8904 112.834 61.0212 112.851C61.0301 112.854 61.0395 112.855 61.0488 112.855C61.1727 112.872 61.3001 112.886 61.424 112.9C61.5582 112.914 61.6925 112.928 61.8267 112.941C61.93 112.952 62.0333 112.962 62.1365 112.973C62.1454 112.976 62.1548 112.977 62.1641 112.976C62.257 112.983 62.35 112.993 62.4429 113H62.4567C62.5359 113.007 62.6185 113.014 62.6976 113.021C63.6581 113.097 64.6219 113.132 65.5995 113.132C66.6563 113.132 67.7063 113.09 68.7424 113H68.7527C68.9765 112.979 69.1968 112.959 69.4171 112.938C69.4756 112.931 69.5307 112.928 69.5892 112.921C69.5995 112.921 69.6133 112.917 69.6236 112.917C69.6409 112.914 69.6581 112.914 69.6787 112.91C69.688 112.911 69.6973 112.909 69.7063 112.907C69.782 112.9 69.8577 112.89 69.9369 112.883L70.1951 112.851C70.2811 112.841 70.3672 112.827 70.4533 112.817C70.4739 112.813 70.4911 112.813 70.5118 112.81C70.5737 112.803 70.6357 112.793 70.6977 112.782C70.7286 112.779 70.7596 112.775 70.7872 112.772C70.8491 112.761 70.9076 112.755 70.9696 112.744H70.973C72.862 112.471 74.7266 112.048 76.5496 111.481C76.646 111.45 76.7424 111.422 76.8388 111.391C76.3943 109.307 75.4793 107.353 74.1644 105.681C72.8494 104.01 71.1698 102.664 69.2553 101.749C69.7289 101.295 70.0562 100.709 70.1951 100.066C70.2844 99.6523 70.2915 99.2244 70.2159 98.8075C70.1403 98.3905 69.9835 97.9927 69.7545 97.6369C69.3078 96.9473 68.6069 96.4642 67.8061 96.294L62.7045 95.2211C61.8833 95.0601 61.032 95.2316 60.3359 95.6982C59.6397 96.1649 59.1549 96.8889 58.9868 97.713C58.9348 97.9657 58.9116 98.2235 58.9179 98.4814C54.0057 101.769 50.4704 105.178 48.2363 108.799Z" fill="#ABABAB"/>
<path d="M68.4176 91.7589C75.2757 91.7589 80.8353 86.1692 80.8353 79.274C80.8353 72.3787 75.2757 66.7891 68.4176 66.7891C61.5596 66.7891 56 72.3787 56 79.274C56 86.1692 61.5596 91.7589 68.4176 91.7589Z" fill="#9E616A"/>
<path d="M66.6534 91.0913C63.5447 91.9355 60.1174 90.8132 57.6913 88.6843C55.2652 86.5554 53.7476 83.5388 52.8732 80.4229C52.2328 78.1408 51.9291 75.6077 52.9397 73.4653C53.9504 71.3229 56.6703 69.8775 58.7687 70.9597C57.4742 69.4433 58.1209 66.9353 59.6328 65.6381C61.1446 64.3409 63.2206 63.969 65.1979 63.7657C68.0674 63.4707 71.0315 63.4376 73.762 64.3723C76.4926 65.307 78.9736 67.3505 79.8282 70.1204C80.701 70.529 81.6839 70.635 82.6231 70.4218C83.5622 70.2086 84.4045 69.6883 85.0181 68.9423C85.1763 69.799 85.0492 70.6844 84.6566 71.4612C84.2639 72.2381 83.6276 72.8632 82.846 73.2398L87.0298 71.8761C87.7493 73.4073 86.4885 75.3025 84.8763 75.7928C83.264 76.2832 81.5236 75.7472 79.9937 75.0388C78.4637 74.3304 76.9811 73.4347 75.3193 73.1584C73.6574 72.8821 71.7054 73.419 70.9367 74.9259C70.5341 75.7152 70.5131 76.6395 70.2793 77.4948C70.0456 78.3501 69.4534 79.2369 68.5739 79.3069C68.0183 79.3511 67.4743 79.0536 66.9202 79.1144C66.5801 79.1817 66.267 79.3473 66.0191 79.5908C65.7712 79.8343 65.5993 80.1452 65.5245 80.4854C65.3865 81.1682 65.3848 81.8717 65.5195 82.5551L66.5823 90.7224L66.6534 91.0913Z" fill="#2F2E41"/>
</g>
<defs>
<clipPath id="clip0_79_7707">
<rect width="261.809" height="170.929" fill="white" transform="translate(69.1914 47.0698)"/>
</clipPath>
<clipPath id="clip1_79_7707">
<rect width="278.603" height="218" fill="white"/>
</clipPath>
</defs>
</svg>
